<?xml version="1.0" encoding="UTF-8"?>
<svg version="1.1" xmlns="http://www.w3.org/2000/svg" width="200" height="200">
<path d="M0 0 C0.71196533 0.09700195 1.42393066 0.19400391 2.1574707 0.29394531 C9.3481281 1.38436226 13.88332158 3.07082158 19 8.1875 C25.52189437 17.6908318 25.99266517 28.27966283 26.625 39.5625 C27.2035078 48.16298268 28.1820141 56.45864071 34.34765625 62.92578125 C36.37903508 64.52586946 38.31315984 65.41992565 40.6875 66.4375 C45.89188228 68.81031867 49.54994071 72.20370645 53.5625 76.1875 C54.45485352 77.05870483 54.45485352 77.05870483 55.36523438 77.94750977 C58.89282897 81.55468546 61.25904735 85.03631619 63.36865234 89.61450195 C66.79978999 96.99134559 72.91680517 100.39659111 80.1875 103.375 C84.27131161 104.56810303 88.39911415 105.44465354 92.5625 106.3125 C115.93265328 111.57574014 115.93265328 111.57574014 122.1875 121.375 C125.94717808 128.56860788 125.30645994 138.52495902 124.1875 146.375 C122.56577235 150.09101171 120.32858825 151.89690962 117.1875 154.375 C115.8406229 155.7338671 114.49455588 157.09372083 113.16772461 158.47216797 C109.1062743 162.67000243 104.8647664 166.63912675 100.41796875 170.42578125 C98.59496733 172.01891208 96.81801883 173.63917049 95.05078125 175.29296875 C94.48665527 175.82027588 93.9225293 176.34758301 93.34130859 176.89086914 C92.23046932 177.93234022 91.1225198 178.97690577 90.01806641 180.02514648 C80.13186365 189.27613405 80.13186365 189.27613405 74.5 189.5625 C64.32019311 187.40793893 56.06830834 181.87979106 50.1875 173.375 C48.75 170.4375 48.75 170.4375 48.1875 167.375 C48.05730469 166.68277344 47.92710938 165.99054688 47.79296875 165.27734375 C46.31356831 155.27919792 48.71611331 145.50318953 50.8125 135.75 C52.77056045 126.11953941 53.82517971 116.40725525 49.1875 107.375 C47.04234511 104.64610728 47.04234511 104.64610728 44.1875 102.375 C43.61 101.85550781 43.0325 101.33601563 42.4375 100.80078125 C38.7076591 97.45445222 34.85676072 94.35396154 30.875 91.3125 C27.05010433 88.2980624 25.13574186 85.886718 23.1875 81.375 C17.9583171 75.81899317 10.28093063 73.38352132 2.79638672 73.10058594 C-2.262931 73.04226266 -7.31800336 73.16874159 -12.375 73.3125 C-38.81787934 74.00855942 -38.81787934 74.00855942 -46.125 67.1875 C-52.69420021 60.8831869 -57.38976266 52.54876705 -58.5625 43.4375 C-58.38684016 39.52715922 -56.67543699 37.69430091 -54 34.9375 C-49.77924662 31.08433945 -45.36544146 27.46641183 -40.90234375 23.8984375 C-37.94192357 21.48069865 -35.06737286 18.99032631 -32.19921875 16.46508789 C-11.62713156 -1.63597831 -11.62713156 -1.63597831 0 0 Z M-14.25 9.125 C-14.7651416 9.52549561 -15.2802832 9.92599121 -15.81103516 10.33862305 C-21.68732669 14.96098894 -27.33203418 19.86497672 -32.96875 24.77392578 C-36.19382517 27.57451409 -39.44209606 30.34802626 -42.6875 33.125 C-43.8724947 34.14050964 -45.05740004 35.15612358 -46.2421875 36.171875 C-47.09039062 36.89890625 -47.93859375 37.6259375 -48.8125 38.375 C-47.1625 40.355 -45.5125 42.335 -43.8125 44.375 C-40.38205869 42.90919622 -38.29874472 41.013693 -35.75 38.3125 C-31.68142352 34.15115468 -27.39519332 30.48265509 -22.859375 26.84375 C-19.31538273 23.97220755 -15.83951341 21.02904892 -12.375 18.0625 C-11.48808472 17.30682739 -11.48808472 17.30682739 -10.58325195 16.53588867 C-7.53623404 13.9227249 -4.60555411 11.26412968 -1.8125 8.375 C-2.4725 7.385 -3.1325 6.395 -3.8125 5.375 C-8.41922591 4.52452752 -10.69683669 6.34554909 -14.25 9.125 Z M3.1875 6.375 C3.1875 7.695 3.1875 9.015 3.1875 10.375 C4.404375 10.82875 5.62125 11.2825 6.875 11.75 C12.33381856 14.50825377 14.16914845 18.77650575 16.1875 24.375 C16.89455867 28.20476249 17.10763911 31.98725347 17.25 35.875 C17.57309025 43.83043531 18.76968146 50.13703345 22.1875 57.375 C23.44310531 53.60818407 22.91854657 51.1838694 22.375 47.25 C22.17713468 45.80876491 21.98056379 44.36735163 21.78515625 42.92578125 C21.68348145 42.17893066 21.58180664 41.43208008 21.47705078 40.66259766 C21.19013629 38.39582802 20.95872892 36.13031976 20.74609375 33.85546875 C19.5829887 20.82849412 19.5829887 20.82849412 12.875 9.9375 C9.65282384 8.06414177 6.8094311 7.22721908 3.1875 6.375 Z M-3.13671875 15.96484375 C-3.91660156 16.73957031 -4.69648437 17.51429687 -5.5 18.3125 C-8.7398686 21.41419774 -11.96007486 24.36975827 -15.5 27.125 C-19.96183016 30.65197051 -24.30977747 34.29629717 -28.625 38 C-29.25946045 38.53850586 -29.8939209 39.07701172 -30.54760742 39.63183594 C-34.39417816 42.95315782 -37.66531452 46.38257042 -40.8125 50.375 C-35.99199957 54.19815552 -32.30714065 54.48150433 -26.3203125 54.33203125 C-24.7942844 54.30960398 -23.2682417 54.28815295 -21.7421875 54.26757812 C-19.35505834 54.23084183 -16.96869267 54.18828564 -14.58203125 54.12817383 C-5.12667192 53.9014907 2.80496803 54.25217853 11.78564453 57.5065918 C14.07530247 58.48833853 14.07530247 58.48833853 16.1875 58.375 C15.98253906 57.80136719 15.77757812 57.22773437 15.56640625 56.63671875 C13.29925665 49.48814658 12.75639448 42.72394177 12.65454102 35.27807617 C12.4773671 28.42237054 11.23614603 22.90885167 6.8125 17.4375 C3.26879737 14.65316222 0.82563309 13.25446191 -3.13671875 15.96484375 Z M-52.8125 43.375 C-52.1525 44.695 -51.4925 46.015 -50.8125 47.375 C-49.8225 47.375 -48.8325 47.375 -47.8125 47.375 C-49.17573743 45.3350281 -49.17573743 45.3350281 -50.8125 43.375 C-51.4725 43.375 -52.1325 43.375 -52.8125 43.375 Z M-48.8125 54.375 C-45.37871755 60.88111411 -41.13834504 63.57565208 -34.32559204 65.76644897 C-30.17506712 66.77150814 -26.19192351 66.62697291 -21.94921875 66.45703125 C-20.07358441 66.41908689 -18.19793248 66.38200442 -16.32226562 66.34570312 C-13.41258655 66.27151035 -10.50386493 66.1876335 -7.5949707 66.0871582 C12.09513884 65.45167055 12.09513884 65.45167055 21.03198242 71.0690918 C23.19509849 72.63408323 23.19509849 72.63408323 26.1875 72.375 C15.45268995 61.8898367 2.46062044 58.05868929 -12.15625 58.23046875 C-15.62623791 58.36763708 -19.04497369 58.6586105 -22.5 59 C-30.64180537 59.6958808 -37.91181181 58.97545879 -44.8125 54.375 C-46.1325 54.375 -47.4525 54.375 -48.8125 54.375 Z M23.1875 57.375 C24.1875 59.375 24.1875 59.375 24.1875 59.375 Z M28.1875 64.375 C29.1875 66.375 29.1875 66.375 29.1875 66.375 Z M30.1875 67.375 C31.1775 68.86 31.1775 68.86 32.1875 70.375 C32.8475 70.045 33.5075 69.715 34.1875 69.375 C32.8675 68.715 31.5475 68.055 30.1875 67.375 Z M34.1875 76.375 C32.18571137 78.17995431 32.18571137 78.17995431 31.1875 80.375 C31.33785136 83.97741868 31.97855785 85.17014141 34.5859375 87.7265625 C35.56820312 88.47679688 36.55046875 89.22703125 37.5625 90 C43.08364662 94.26832707 43.08364662 94.26832707 44.9140625 96.1484375 C46.13289987 97.6062422 46.13289987 97.6062422 48.1875 97.375 C49.53081654 95.38169158 50.86344012 93.38115134 52.1875 91.375 C53.1775 90.715 54.1675 90.055 55.1875 89.375 C54.60614406 86.09194391 53.64826559 84.46613911 51.28125 82.140625 C50.70246094 81.56699219 50.12367187 80.99335937 49.52734375 80.40234375 C48.92019531 79.81582031 48.31304687 79.22929688 47.6875 78.625 C47.08035156 78.02300781 46.47320312 77.42101562 45.84765625 76.80078125 C40.4320001 71.48161786 40.34078324 71.94463607 34.1875 76.375 Z M57.1875 94.375 C62.83751213 104.20110805 72.15530132 111.12847518 83.05322266 114.17651367 C86.00684447 114.8213115 88.9627202 115.39892876 91.9375 115.9375 C100.04273654 117.41355015 105.63076646 118.62067015 111.4375 124.75 C113.30840564 127.55635846 114.28398838 130.13741669 115.1875 133.375 C116.1775 133.375 117.1675 133.375 118.1875 133.375 C118.50269752 129.43503101 118.41483513 126.86920681 116.75 123.25 C108.97227919 114.52377665 96.92485514 112.8467052 85.98046875 110.44921875 C75.12658029 108.01673402 67.27157815 104.76771824 60.37890625 95.6953125 C59.98574219 95.25960937 59.59257813 94.82390625 59.1875 94.375 C58.5275 94.375 57.8675 94.375 57.1875 94.375 Z M52.1875 99.375 C52.68121094 100.30441406 53.17492187 101.23382813 53.68359375 102.19140625 C54.3312692 103.43982415 54.97837431 104.68853805 55.625 105.9375 C55.95048828 106.54658203 56.27597656 107.15566406 56.61132812 107.78320312 C62.1890962 118.65122546 59.40256253 129.61609839 56.625 141 C54.17796371 151.2875403 52.09115334 163.17501464 57.58984375 172.83984375 C59.02890141 174.84185795 60.39840409 176.67827589 62.1875 178.375 C62.8475 178.375 63.5075 178.375 64.1875 178.375 C63.72927532 174.90558454 63.29618317 171.70104951 62.1875 168.375 C61.7070442 161.00185134 61.77171484 154.15708418 63.6875 147 C67.88478052 130.67277961 64.54018114 117.08196053 56.65234375 102.45703125 C55.28673994 100.07812049 55.28673994 100.07812049 52.1875 99.375 Z M68.1875 114.375 C68.331875 115.11363281 68.47625 115.85226563 68.625 116.61328125 C70.76900354 128.33085617 70.39603704 137.8582275 67.61083984 149.38696289 C65.95442916 156.45436433 64.72997145 163.67603843 68.1875 170.375 C72.25710159 169.00646141 74.77208283 167.19392472 77.875 164.25 C81.11616026 161.24239394 84.374839 158.38845757 87.875 155.6875 C92.48688686 152.02012757 96.93061594 148.18726305 101.3125 144.25 C102.32703247 143.37081909 102.32703247 143.37081909 103.36206055 142.47387695 C107.22036906 138.99660665 107.22036906 138.99660665 108.734375 134.140625 C107.9549774 130.19909999 106.24958676 127.84284618 103.1875 125.375 C96.75745283 121.57076891 89.57881827 120.6589537 82.32543945 119.52539062 C76.99173689 118.64812509 72.82831948 117.23848436 68.1875 114.375 Z M115.1875 138.375 C114.59324219 138.92027344 113.99898437 139.46554688 113.38671875 140.02734375 C108.95412704 144.06010604 104.48117395 147.99195532 99.8125 151.75 C95.26658684 155.4251467 90.95879385 159.2829373 86.69262695 163.27319336 C82.41172363 167.24896773 77.91060329 170.85016415 73.26953125 174.40234375 C71.09967209 176.45821406 70.39226791 177.42137809 70.1875 180.375 C71.20720318 182.31154948 71.20720318 182.31154948 73.1875 183.375 C77.92739166 183.09141674 80.15167691 180.95780012 83.5 177.75 C84.47987347 176.82488991 85.46034428 175.90041211 86.44140625 174.9765625 C87.34761719 174.11804688 88.25382812 173.25953125 89.1875 172.375 C90.43005358 171.28313384 91.67926969 170.19876329 92.9375 169.125 C107.5626462 157.50244784 107.5626462 157.50244784 119.1875 143.375 C119.15552583 141.21502798 119.15552583 141.21502798 118.1875 139.375 C117.1975 139.045 116.2075 138.715 115.1875 138.375 Z " fill="#000000" transform="translate(66.8125,5.625)"/>
<path d="M0 0 C1.32 0.33 2.64 0.66 4 1 C3.48686537 6.13134625 1.94265013 10.74837792 -1 15 C-1.99 15.33 -2.98 15.66 -4 16 C-4.66 15.67 -5.32 15.34 -6 15 C-5.61471495 8.83543922 -3.52913975 5.01372252 0 0 Z " fill="#000000" transform="translate(132,62)"/>
<path d="M0 0 C1.65 0.33 3.3 0.66 5 1 C4.85915204 2.79206547 4.71216299 4.58364917 4.5625 6.375 C4.48128906 7.37273438 4.40007812 8.37046875 4.31640625 9.3984375 C4 12 4 12 3 14 C1.35 13.67 -0.3 13.34 -2 13 C-1.85915204 11.20793453 -1.71216299 9.41635083 -1.5625 7.625 C-1.48128906 6.62726562 -1.40007812 5.62953125 -1.31640625 4.6015625 C-1 2 -1 2 0 0 Z " fill="#000000" transform="translate(118,53)"/>
<path d="M0 0 C0.33 1.32 0.66 2.64 1 4 C-2.31371 6.20914 -3.3446021 6.22481553 -7.1875 6.125 C-8.08855469 6.10695313 -8.98960937 6.08890625 -9.91796875 6.0703125 C-10.60503906 6.04710938 -11.29210937 6.02390625 -12 6 C-12.33 4.68 -12.66 3.36 -13 2 C-8.49646738 0.24252386 -4.82360189 -0.19294408 0 0 Z " fill="#000000" transform="translate(146,83)"/>
</svg>
