<?xml version="1.0" encoding="UTF-8"?>
<svg version="1.1" xmlns="http://www.w3.org/2000/svg" width="200" height="200">
<path d="M0 0 C0.77254623 -0.00817749 1.54509247 -0.01635498 2.34104919 -0.02478027 C4.9033836 -0.0496382 7.4656626 -0.06615113 10.02807617 -0.08056641 C10.90260626 -0.08589008 11.77713634 -0.09121376 12.67816734 -0.09669876 C17.30692036 -0.12343193 21.93564638 -0.14280638 26.56445312 -0.15722656 C31.34641795 -0.17387608 36.1276938 -0.21865551 40.90939808 -0.26959801 C44.58543188 -0.30324743 48.26130167 -0.31480142 51.9374752 -0.32045364 C53.70015415 -0.32717241 55.46282207 -0.34241078 57.22535133 -0.36634445 C59.69377474 -0.3979513 62.16033376 -0.39804029 64.62890625 -0.390625 C65.35584686 -0.40703033 66.08278748 -0.42343567 66.83175659 -0.44033813 C70.68306979 -0.39302407 72.40329051 0.11270352 75.50166321 2.47259521 C77.50854492 5.19287109 77.50854492 5.19287109 77.8777771 7.25357056 C77.75254669 7.92915009 77.62731628 8.60472961 77.49829102 9.30078125 C77.36074402 10.08173157 77.22319702 10.86268188 77.08148193 11.66729736 C76.89241272 12.50073669 76.70334351 13.33417603 76.50854492 14.19287109 C76.31286926 15.05998718 76.1171936 15.92710327 75.91558838 16.82049561 C75.2145718 19.7165796 74.45304659 22.59063687 73.67260742 25.46630859 C73.39258881 26.5118692 73.11257019 27.55742981 72.82406616 28.63467407 C72.23401577 30.8289823 71.64050553 33.02236282 71.04370117 35.21484375 C70.13150183 38.57539788 69.23749256 41.94045498 68.34448242 45.30615234 C67.76745224 47.44316701 67.18936436 49.57989643 66.61010742 51.71630859 C66.3443692 52.72253265 66.07863098 53.72875671 65.80484009 54.76547241 C65.41961685 56.16305283 65.41961685 56.16305283 65.02661133 57.58886719 C64.80534576 58.40777435 64.5840802 59.22668152 64.35610962 60.07040405 C63.11537126 63.17745449 61.47204745 64.71111983 58.50854492 66.19287109 C49.59854492 66.19287109 40.68854492 66.19287109 31.50854492 66.19287109 C31.50854492 96.55287109 31.50854492 126.91287109 31.50854492 158.19287109 C37.44854492 158.19287109 43.38854492 158.19287109 49.50854492 158.19287109 C56.75854492 161.81787109 56.75854492 161.81787109 58.50854492 166.19287109 C59.05188345 171.08291786 59.02963596 173.18790981 56.75854492 177.56787109 C53.9736705 180.81689125 52.15575581 182.03352706 47.87791634 182.44734669 C46.36864728 182.45042599 46.36864728 182.45042599 44.82888794 182.4535675 C43.67090698 182.46065231 42.51292603 182.46773712 41.31985474 182.47503662 C39.41996292 182.4713205 39.41996292 182.4713205 37.48168945 182.4675293 C36.13124306 182.47187762 34.78079914 182.47706117 33.43035889 182.48301697 C29.76499272 182.49640653 26.09972967 182.49698561 22.43434381 182.49445367 C19.37277582 182.49338375 16.31122867 182.49826795 13.24966514 182.50305909 C6.0252329 182.5141545 -1.19914735 182.51459174 -8.42358398 182.50854492 C-15.87172599 182.50250659 -23.31967901 182.5148124 -30.76778877 182.53611499 C-37.16622396 182.55374119 -43.56459906 182.55973068 -49.96305764 182.55647725 C-53.78285683 182.55466558 -57.60252126 182.55728865 -61.42229843 182.57119179 C-65.01582622 182.58378187 -68.60905996 182.5818151 -72.20258331 182.5687809 C-74.14563261 182.56529355 -76.08869094 182.57658493 -78.03170776 182.58834839 C-88.84194389 182.52318421 -88.84194389 182.52318421 -93.49145508 179.19287109 C-96.09490116 175.66562157 -96.72676761 172.9159114 -96.49145508 168.63037109 C-95.81155908 164.15061192 -94.13767188 161.97094104 -90.49145508 159.19287109 C-83.52726094 156.87147305 -75.83236026 158.19287109 -68.49145508 158.19287109 C-68.82145508 135.75287109 -69.15145508 113.31287109 -69.49145508 90.19287109 C-75.76145508 93.82287109 -82.03145508 97.45287109 -88.49145508 101.19287109 C-97.49145508 101.19287109 -97.49145508 101.19287109 -100.99145508 98.81787109 C-104.45211911 95.18417386 -104.62680588 93.34405287 -104.81958008 88.36083984 C-104.26947661 84.72622766 -102.88213253 82.23748827 -99.90893555 80.00415039 C-97.90672534 78.74851373 -95.87277934 77.58543521 -93.80395508 76.44287109 C-93.05009521 76.01748047 -92.29623535 75.59208984 -91.51953125 75.15380859 C-89.95114684 74.26908732 -88.38055877 73.38826191 -86.80786133 72.51123047 C-84.60733213 71.25882136 -82.45384928 69.95177554 -80.30395508 68.61474609 C-71.68669134 63.34383051 -64.76202011 60.69035159 -54.49145508 60.19287109 C-55.41958008 59.63599609 -56.34770508 59.07912109 -57.30395508 58.50537109 C-61.58659323 55.3983591 -63.0030675 53.00688211 -64.36645508 47.94287109 C-64.54344118 42.6332881 -63.64270694 37.73862187 -60.12817383 33.57958984 C-56.59422591 30.48396105 -53.14869179 28.23238391 -48.38989258 28.16162109 C-43.11068166 28.51474557 -39.55085874 29.60549111 -35.49145508 33.19287109 C-31.81440291 38.03109763 -30.83759656 41.75906889 -31.10473633 47.82958984 C-32.05387676 53.62989251 -35.93230082 56.90014858 -40.49145508 60.19287109 C-38.55447541 60.52921485 -36.61685022 60.86184274 -34.67895508 61.19287109 C-33.06053711 61.47130859 -33.06053711 61.47130859 -31.40942383 61.75537109 C-28.4887461 62.26700895 -28.4887461 62.26700895 -25.49145508 62.19287109 C-25.54793213 61.10192139 -25.60440918 60.01097168 -25.66259766 58.88696289 C-25.65451782 53.37779834 -24.21489192 48.36635079 -22.75317383 43.08740234 C-22.47174026 42.04517014 -22.1903067 41.00293793 -21.90034485 39.92912292 C-21.30579163 37.73682023 -20.70626707 35.54586035 -20.10205078 33.35620117 C-19.17996681 30.00904369 -18.2770011 26.65714493 -17.3762207 23.30419922 C-16.79466857 21.16912544 -16.21202349 19.03434899 -15.62817383 16.89990234 C-15.35929855 15.9008638 -15.09042328 14.90182526 -14.81340027 13.87251282 C-12.33378359 4.95884711 -12.33378359 4.95884711 -9.49145508 1.19287109 C-6.4649565 -0.32037819 -3.32154156 0.01930333 0 0 Z M-5.49145508 7.19287109 C-11.73750514 23.5870517 -11.73750514 23.5870517 -13.49145508 43.19287109 C-12.99838867 42.17580078 -12.99838867 42.17580078 -12.49536133 41.13818359 C-5.91516497 28.26311104 2.73186145 19.01729615 16.59057617 14.09912109 C27.32874013 11.12165843 37.43988 11.04865409 47.51635742 16.22412109 C53.76363458 20.22670559 57.20011017 25.89748612 58.82104492 33.06787109 C59.65935549 38.11340388 59.70389909 43.09195668 59.50854492 48.19287109 C61.55452351 44.56533141 62.59118083 40.7163443 63.67260742 36.72412109 C63.86954193 36.0067981 64.06647644 35.2894751 64.26937866 34.55041504 C64.68324186 33.03809208 65.09495139 31.5251783 65.50463867 30.01171875 C66.1318652 27.6990644 66.76897617 25.38929043 67.40698242 23.07958984 C67.80862413 21.60709713 68.20968548 20.13444597 68.61010742 18.66162109 C68.80069733 17.97297974 68.99128723 17.28433838 69.18765259 16.5748291 C70.0715685 13.2806014 70.50854492 10.63913141 70.50854492 7.19287109 C45.42854492 7.19287109 20.34854492 7.19287109 -5.49145508 7.19287109 Z M16.50854492 20.19287109 C16.50854492 22.17287109 16.50854492 24.15287109 16.50854492 26.19287109 C14.85854492 26.52287109 13.20854492 26.85287109 11.50854492 27.19287109 C11.17854492 26.20287109 10.84854492 25.21287109 10.50854492 24.19287109 C7.03253786 26.07179383 4.38754025 27.64365769 2.50854492 31.19287109 C2.73052305 33.89132999 2.73052305 33.89132999 3.50854492 36.19287109 C1.01789604 36.87994665 -0.87031799 37.19287109 -3.49145508 37.19287109 C-4.81145508 39.83287109 -6.13145508 42.47287109 -7.49145508 45.19287109 C-3.90839516 45.30914613 -0.3258209 45.38014469 3.25854492 45.44287109 C4.27432617 45.47638672 5.29010742 45.50990234 6.33666992 45.54443359 C12.05417008 45.76595487 12.05417008 45.76595487 17.02416992 43.36474609 C17.51401367 42.64802734 18.00385742 41.93130859 18.50854492 41.19287109 C19.05124023 40.70173828 19.59393555 40.21060547 20.15307617 39.70458984 C21.76800993 37.90349658 22.41132291 36.28480171 23.19604492 34.00537109 C23.44741211 33.28994141 23.6987793 32.57451172 23.95776367 31.83740234 C24.13952148 31.29470703 24.3212793 30.75201172 24.50854492 30.19287109 C25.82854492 30.19287109 27.14854492 30.19287109 28.50854492 30.19287109 C28.36545898 31.44003906 28.36545898 31.44003906 28.21948242 32.71240234 C28.10862305 33.79908203 27.99776367 34.88576172 27.88354492 36.00537109 C27.7675293 37.08431641 27.65151367 38.16326172 27.53198242 39.27490234 C27.23394336 42.38911441 27.23394336 42.38911441 29.50854492 45.19287109 C32.02750566 45.60965716 32.02750566 45.60965716 34.95385742 45.48583984 C36.5684082 45.47133789 36.5684082 45.47133789 38.21557617 45.45654297 C39.34350586 45.43140625 40.47143555 45.40626953 41.63354492 45.38037109 C42.76920898 45.36683594 43.90487305 45.35330078 45.07495117 45.33935547 C47.8866188 45.30391428 50.69734909 45.25450626 53.50854492 45.19287109 C53.50854492 43.54287109 53.50854492 41.89287109 53.50854492 40.19287109 C51.85854492 40.19287109 50.20854492 40.19287109 48.50854492 40.19287109 C48.83854492 38.54287109 49.16854492 36.89287109 49.50854492 35.19287109 C50.49854492 34.86287109 51.48854492 34.53287109 52.50854492 34.19287109 C52.02922023 29.87894883 50.76274642 28.02717563 47.50854492 25.19287109 C46.84854492 25.85287109 46.18854492 26.51287109 45.50854492 27.19287109 C43.38354492 26.81787109 43.38354492 26.81787109 41.50854492 26.19287109 C41.83854492 24.21287109 42.16854492 22.23287109 42.50854492 20.19287109 C39.00077708 18.58932008 36.36499613 17.97250245 32.50854492 18.19287109 C32.17854492 19.84287109 31.84854492 21.49287109 31.50854492 23.19287109 C29.03354492 22.69787109 29.03354492 22.69787109 26.50854492 22.19287109 C26.01354492 20.21287109 26.01354492 20.21287109 25.50854492 18.19287109 C22.35521536 18.19287109 19.51397461 19.30237341 16.50854492 20.19287109 Z M-56.86645508 39.88037109 C-57.83497965 43.46391202 -57.62361794 46.65849089 -56.49145508 50.19287109 C-53.89251686 52.93229246 -51.35163895 55.07933627 -47.49145508 55.19287109 C-43.3035785 53.94385527 -41.0718462 52.96672593 -38.42895508 49.44287109 C-37.21139311 45.22198961 -37.71690711 43.18560402 -39.49145508 39.19287109 C-42.13609068 36.3278492 -43.62742135 35.31887601 -47.49145508 34.75537109 C-51.60307723 35.35498266 -54.22488913 36.63844925 -56.86645508 39.88037109 Z M-15.49145508 43.19287109 C-16.81145508 48.47287109 -18.13145508 53.75287109 -19.49145508 59.19287109 C5.91854492 59.19287109 31.32854492 59.19287109 57.50854492 59.19287109 C58.16854492 55.89287109 58.82854492 52.59287109 59.50854492 49.19287109 C59.17854492 49.85287109 58.84854492 50.51287109 58.50854492 51.19287109 C57.65099609 51.17192383 56.79344727 51.15097656 55.90991211 51.12939453 C52.7193602 51.06110583 49.52918147 51.01101596 46.33813477 50.97314453 C44.95877812 50.95306467 43.57950623 50.92579444 42.20043945 50.89111328 C40.21497513 50.84244292 38.22888238 50.82200691 36.24291992 50.80224609 C35.04892578 50.78129883 33.85493164 50.76035156 32.62475586 50.73876953 C28.87397082 51.28534272 27.97630332 52.43825756 25.50854492 55.19287109 C22.00854492 55.69287109 22.00854492 55.69287109 18.50854492 55.19287109 C17.6186084 54.1994873 17.6186084 54.1994873 16.71069336 53.18603516 C13.68613587 50.44850884 11.80260294 50.73157183 7.77416992 50.80224609 C5.8309082 50.82158203 5.8309082 50.82158203 3.84838867 50.84130859 C2.48509668 50.87472743 1.12181543 50.90858719 -0.24145508 50.94287109 C-1.62033572 50.96294402 -2.9992442 50.98119342 -4.37817383 50.99755859 C-7.74997252 51.04471662 -11.12036194 51.11052571 -14.49145508 51.19287109 C-14.49145508 48.55287109 -14.49145508 45.91287109 -14.49145508 43.19287109 C-14.82145508 43.19287109 -15.15145508 43.19287109 -15.49145508 43.19287109 Z M20.50854492 47.19287109 C20.50854492 48.18287109 20.50854492 49.17287109 20.50854492 50.19287109 C21.49854492 49.86287109 22.48854492 49.53287109 23.50854492 49.19287109 C23.50854492 48.53287109 23.50854492 47.87287109 23.50854492 47.19287109 C22.51854492 47.19287109 21.52854492 47.19287109 20.50854492 47.19287109 Z M-19.49145508 66.19287109 C-17.16137564 68.76590394 -14.74862651 70.31049742 -11.71020508 71.97021484 C-10.78594727 72.48390625 -9.86168945 72.99759766 -8.90942383 73.52685547 C-6.96575773 74.59496113 -5.02044337 75.66007293 -3.07348633 76.72216797 C-2.14922852 77.23714844 -1.2249707 77.75212891 -0.27270508 78.28271484 C0.57227539 78.74540771 1.41725586 79.20810059 2.2878418 79.68481445 C5.91847187 82.15033797 7.28647664 84.33632201 8.38354492 88.56787109 C8.52786772 92.75323238 7.77553772 94.71141786 5.50854492 98.19287109 C1.19788205 101.06664634 -2.43225929 100.95340966 -7.49145508 100.19287109 C-11.10240275 98.73782534 -14.28318364 96.7909073 -17.55395508 94.69287109 C-19.23171267 93.66059998 -20.91006423 92.62929342 -22.58911133 91.59912109 C-23.31622314 91.13828125 -24.04333496 90.67744141 -24.79248047 90.20263672 C-26.30532785 89.107719 -26.30532785 89.107719 -27.49145508 89.19287109 C-27.49145508 111.96287109 -27.49145508 134.73287109 -27.49145508 158.19287109 C-14.29145508 158.19287109 -1.09145508 158.19287109 12.50854492 158.19287109 C12.53760806 142.04345879 12.53760806 142.04345879 12.55737305 125.89404297 C12.56336181 119.31192219 12.570463 112.72981526 12.58398438 106.14770508 C12.59481217 100.84390549 12.60082152 95.54012074 12.60342216 90.23631096 C12.60527661 88.20801497 12.60889759 86.17971984 12.61427498 84.15143013 C12.62148398 81.32090596 12.62253592 78.49044391 12.62207031 75.65991211 C12.62746323 74.38892921 12.62746323 74.38892921 12.63296509 73.0922699 C12.99091537 69.33781266 12.99091537 69.33781266 11.50854492 66.19287109 C9.21703075 66.10496134 6.92281968 66.08593071 4.62963867 66.09521484 C3.94297623 66.09662979 3.25631378 66.09804474 2.54884338 66.09950256 C0.34786691 66.1051163 -1.85300917 66.11767102 -4.05395508 66.13037109 C-5.5428859 66.13538433 -7.03181832 66.13994754 -8.52075195 66.14404297 C-12.17768583 66.15509016 -15.83456066 66.17236396 -19.49145508 66.19287109 Z M18.50854492 66.19287109 C18.50854492 96.55287109 18.50854492 126.91287109 18.50854492 158.19287109 C20.81854492 158.19287109 23.12854492 158.19287109 25.50854492 158.19287109 C25.50854492 127.83287109 25.50854492 97.47287109 25.50854492 66.19287109 C23.19854492 66.19287109 20.88854492 66.19287109 18.50854492 66.19287109 Z M-77.42895508 74.94287109 C-78.36674805 75.45591797 -79.30454102 75.96896484 -80.27075195 76.49755859 C-86.21346655 79.784842 -91.90653324 83.32977263 -97.49145508 87.19287109 C-97.16145508 89.50287109 -96.83145508 91.81287109 -96.49145508 94.19287109 C-93.42366028 95.13694081 -91.92588492 95.36909781 -88.90771484 94.14477539 C-88.00851318 93.60763916 -87.10931152 93.07050293 -86.18286133 92.51708984 C-85.18834961 91.93636719 -84.19383789 91.35564453 -83.16918945 90.75732422 C-82.14116211 90.13792969 -81.11313477 89.51853516 -80.05395508 88.88037109 C-78.01641025 87.67117992 -75.97612244 86.46659653 -73.93286133 85.26708984 C-73.03253174 84.72656982 -72.13220215 84.1860498 -71.20458984 83.62915039 C-68.49145508 82.19287109 -68.49145508 82.19287109 -62.49145508 80.19287109 C-61.99645508 92.56787109 -61.99645508 92.56787109 -61.49145508 105.19287109 C-52.25145508 105.19287109 -43.01145508 105.19287109 -33.49145508 105.19287109 C-33.16145508 97.27287109 -32.83145508 89.35287109 -32.49145508 81.19287109 C-27.28038945 82.06138203 -25.43082857 82.52339047 -21.26879883 85.16943359 C-20.31811523 85.75724609 -19.36743164 86.34505859 -18.38793945 86.95068359 C-16.40895982 88.19946546 -14.43240542 89.45209862 -12.45825195 90.70849609 C-11.50885742 91.29373047 -10.55946289 91.87896484 -9.58129883 92.48193359 C-8.7239917 93.02543457 -7.86668457 93.56893555 -6.98339844 94.12890625 C-3.96860189 95.41610948 -2.55928318 95.2493546 0.50854492 94.19287109 C1.16854492 93.53287109 1.82854492 92.87287109 2.50854492 92.19287109 C2.34933713 89.15576976 2.04081238 87.68653785 -0.21508789 85.59423828 C-0.95082031 85.14725586 -1.68655273 84.70027344 -2.44458008 84.23974609 C-3.25862305 83.73636719 -4.07266602 83.23298828 -4.91137695 82.71435547 C-5.76280273 82.21226563 -6.61422852 81.71017578 -7.49145508 81.19287109 C-8.69898437 80.46293945 -8.69898437 80.46293945 -9.9309082 79.71826172 C-12.35441654 78.26885117 -14.79425828 76.85186319 -17.24145508 75.44287109 C-18.06516602 74.96205078 -18.88887695 74.48123047 -19.73754883 73.98583984 C-20.53805664 73.52306641 -21.33856445 73.06029297 -22.16333008 72.58349609 C-22.87585938 72.17131836 -23.58838867 71.75914063 -24.32250977 71.33447266 C-31.1116297 67.76109075 -37.23468382 67.69289497 -44.80395508 67.44287109 C-46.60123047 67.35972656 -46.60123047 67.35972656 -48.43481445 67.27490234 C-60.25221745 66.8451786 -67.17438013 69.18739439 -77.42895508 74.94287109 Z M-61.49145508 112.19287109 C-61.5832071 118.83214957 -61.66287045 125.46923556 -61.71118164 132.10864258 C-61.73131674 134.36783291 -61.75862697 136.62697101 -61.79321289 138.88598633 C-61.8416467 142.1303393 -61.86440484 145.37400427 -61.88208008 148.61865234 C-61.90272522 149.63123611 -61.92337036 150.64381989 -61.94464111 151.68708801 C-61.94494324 152.62783676 -61.94524536 153.56858551 -61.94555664 154.5378418 C-61.95443909 155.36612991 -61.96332153 156.19441803 -61.97247314 157.04780579 C-61.65674177 159.36066921 -61.65674177 159.36066921 -59.63104248 161.03068542 C-57.47368979 162.52391743 -57.47368979 162.52391743 -54.80395508 161.44287109 C-52.59390361 160.39058799 -52.59390361 160.39058799 -51.49145508 159.19287109 C-51.34364772 156.4791965 -51.25641454 153.78773184 -51.21020508 151.07177734 C-51.19179565 150.25668198 -51.17338623 149.44158661 -51.15441895 148.60179138 C-51.09548393 145.98639352 -51.04275463 143.37092922 -50.99145508 140.75537109 C-50.92392116 137.31903087 -50.85022113 133.88290521 -50.77270508 130.44677734 C-50.75912964 129.65090714 -50.7455542 128.85503693 -50.73156738 128.03504944 C-50.60423148 122.4184239 -50.60423148 122.4184239 -49.49145508 120.19287109 C-48.17145508 120.19287109 -46.85145508 120.19287109 -45.49145508 120.19287109 C-45.48210937 121.32305664 -45.47276367 122.45324219 -45.46313477 123.61767578 C-45.42323116 127.81501531 -45.35747181 132.01162213 -45.28393555 136.20849609 C-45.25572798 138.02415548 -45.23451234 139.83993761 -45.22045898 141.65576172 C-45.19902599 144.26772899 -45.15237623 146.87822084 -45.10083008 149.48974609 C-45.09960144 150.30030457 -45.0983728 151.11086304 -45.09710693 151.94598389 C-44.99988693 155.69545863 -44.83625502 157.76249072 -42.45336914 160.73681641 C-41.8059375 161.21731445 -41.15850586 161.6978125 -40.49145508 162.19287109 C-37.57628216 161.11886002 -35.71335332 160.41476934 -33.49145508 158.19287109 C-33.19979425 156.13206966 -33.19979425 156.13206966 -33.2644043 153.74316406 C-33.26455536 152.82236053 -33.26470642 151.90155701 -33.26486206 150.95285034 C-33.27518463 149.95697906 -33.2855072 148.96110779 -33.29614258 147.93505859 C-33.30038742 146.40777634 -33.30038742 146.40777634 -33.30471802 144.84963989 C-33.31593738 141.58893209 -33.34104512 138.32849626 -33.36645508 135.06787109 C-33.37648261 132.8608438 -33.38560885 130.65381222 -33.39379883 128.44677734 C-33.41418317 123.02861883 -33.45332872 117.61105036 -33.49145508 112.19287109 C-42.73145508 112.19287109 -51.97145508 112.19287109 -61.49145508 112.19287109 Z M-89.49145508 167.19287109 C-89.82478841 170.19287109 -89.82478841 170.19287109 -89.49145508 173.19287109 C-86.86751159 175.81681458 -85.72979281 175.44808592 -82.07008362 175.46029663 C-80.34335419 175.47309158 -80.34335419 175.47309158 -78.58174133 175.48614502 C-77.31259384 175.48523865 -76.04344635 175.48433228 -74.73583984 175.48339844 C-73.39067205 175.48938035 -72.0455077 175.49618511 -70.7003479 175.50375366 C-67.04127241 175.52145476 -63.3822904 175.52611074 -59.72317624 175.52738523 C-56.67136547 175.52928184 -53.6195766 175.53663656 -50.56777424 175.54372942 C-43.36939033 175.56002639 -36.17105648 175.56489717 -28.97265625 175.56347656 C-21.54035387 175.56227458 -14.10834164 175.58338438 -6.67611271 175.61496389 C-0.30069278 175.6410904 6.07463217 175.6518454 12.45010525 175.65056574 C16.26038843 175.65005506 20.07041385 175.6557964 23.88064384 175.67692184 C27.46352877 175.69624377 31.04590845 175.6964709 34.62881088 175.68188858 C36.57366623 175.67879038 38.51852129 175.69551891 40.46330261 175.71276855 C41.61727539 175.70437958 42.77124817 175.6959906 43.96018982 175.68734741 C44.96511191 175.68843695 45.97003401 175.68952648 47.00540829 175.69064903 C49.63955184 175.40482449 49.63955184 175.40482449 51.40219212 173.32993507 C52.83014877 171.16621464 52.83014877 171.16621464 51.75854492 168.50537109 C50.70626182 166.29531962 50.70626182 166.29531962 49.50854492 165.19287109 C46.99917742 165.08719562 44.51719262 165.04608887 42.00708008 165.04760742 C41.22171371 165.04424881 40.43634735 165.0408902 39.62718201 165.03742981 C37.01730795 165.02789016 34.40749785 165.02597511 31.79760742 165.02490234 C29.99018324 165.02169153 28.18275932 165.0183276 26.37533569 165.01481628 C22.58053993 165.00881724 18.78576697 165.00697714 14.9909668 165.00756836 C10.12271522 165.00766995 5.25460958 164.99402414 0.38639259 164.97679615 C-3.34875157 164.9656892 -7.08386033 164.96364876 -10.81901932 164.96417809 C-12.6140048 164.96299575 -14.40899113 164.95855984 -16.20396042 164.95084572 C-18.71314516 164.94107336 -21.22201155 164.94391304 -23.73120117 164.94995117 C-24.47625412 164.94433167 -25.22130707 164.93871216 -25.98893738 164.93292236 C-29.71144611 164.95574236 -31.30981591 165.07177832 -34.49145508 167.19287109 C-39.67983418 167.85356356 -43.68833016 167.17062841 -48.49145508 165.19287109 C-49.48145508 165.85287109 -50.47145508 166.51287109 -51.49145508 167.19287109 C-53.61254883 167.45849609 -53.61254883 167.45849609 -55.92895508 167.44287109 C-56.69079102 167.44802734 -57.45262695 167.45318359 -58.23754883 167.45849609 C-60.49145508 167.19287109 -60.49145508 167.19287109 -62.29785156 166.19287109 C-64.96078471 164.97891737 -66.92280405 164.93433031 -69.84301758 164.92724609 C-70.85879883 164.92466797 -71.87458008 164.92208984 -72.92114258 164.91943359 C-73.9755957 164.92716797 -75.03004883 164.93490234 -76.11645508 164.94287109 C-77.17864258 164.93513672 -78.24083008 164.92740234 -79.33520508 164.91943359 C-80.3484082 164.92201172 -81.36161133 164.92458984 -82.40551758 164.92724609 C-83.33315918 164.92950195 -84.26080078 164.93175781 -85.21655273 164.93408203 C-87.69000971 164.97632465 -87.69000971 164.97632465 -89.49145508 167.19287109 Z " fill="#000000" transform="translate(113.491455078125,8.80712890625)"/>
</svg>
