<?xml version="1.0" encoding="UTF-8"?>
<svg version="1.1" xmlns="http://www.w3.org/2000/svg" width="580" height="386">
<path d="M0 0 C1.20046426 0.00322913 2.40092851 0.00645826 3.63777047 0.00978523 C6.90133004 0.01960965 10.16482611 0.0341065 13.42835653 0.05076802 C16.97337263 0.06766056 20.51840885 0.07825609 24.06344604 0.0896759 C30.18275828 0.11022244 36.30204497 0.13462247 42.42133141 0.16175652 C51.26842881 0.20098043 60.11554105 0.23421138 68.96266774 0.26605178 C83.32191608 0.31788955 97.68114155 0.37447076 112.0403595 0.43409729 C125.97622288 0.49195555 139.91209232 0.54754109 153.84797668 0.60011292 C154.70921366 0.60336263 155.57045063 0.60661235 156.45778569 0.60996055 C160.77902416 0.62625207 165.1002628 0.64249935 169.42150152 0.65872467 C205.18291018 0.79305804 240.94428466 0.93511579 276.7056427 1.08229065 C277.46461192 3.96018633 277.82223098 6.4386181 277.79988098 9.42018127 C277.79723236 10.26786072 277.79458374 11.11554016 277.79185486 11.98890686 C277.78660797 12.89628601 277.78136108 13.80366516 277.7759552 14.73854065 C277.78453567 16.66693511 277.79501018 18.59532191 277.8072052 20.5236969 C277.82393558 23.55927675 277.83055231 26.59313542 277.80525208 29.62867737 C277.78432886 32.5622072 277.80747586 35.49265886 277.8384552 38.42604065 C277.81236679 39.78710938 277.81236679 39.78710938 277.78575134 41.17567444 C277.83359571 43.66926966 277.93232653 45.70977573 278.7056427 48.08229065 C280.92864647 50.14698958 282.83679066 50.88924052 285.7056427 52.08229065 C287.9038034 53.63950038 289.71815981 55.24023333 291.7056427 57.08229065 C291.7056427 57.74229065 291.7056427 58.40229065 291.7056427 59.08229065 C292.3656427 59.08229065 293.0256427 59.08229065 293.7056427 59.08229065 C294.55076094 60.80572819 295.38127624 62.53633118 296.2056427 64.26979065 C296.6697052 65.23272034 297.1337677 66.19565002 297.6118927 67.1877594 C298.70157191 70.07151758 298.92841794 72.03583926 298.7056427 75.08229065 C299.3656427 75.41229065 300.0256427 75.74229065 300.7056427 76.08229065 C300.0456427 76.08229065 299.3856427 76.08229065 298.7056427 76.08229065 C298.9325177 76.86604065 299.1593927 77.64979065 299.3931427 78.45729065 C299.90271139 84.3682875 298.19277979 89.67999228 295.0806427 94.70729065 C283.99596528 105.79196807 283.99596528 105.79196807 277.7056427 107.08229065 C278.3656427 107.74229065 279.0256427 108.40229065 279.7056427 109.08229065 C278.7156427 109.08229065 277.7256427 109.08229065 276.7056427 109.08229065 C277.0356427 109.74229065 277.3656427 110.40229065 277.7056427 111.08229065 C279.22355897 126.67627103 278.76385326 142.41463784 278.60510755 158.05762839 C278.57019172 161.62227642 278.54198669 165.18697818 278.51300049 168.75167847 C278.45739049 175.46950113 278.39594425 182.18725655 278.33227915 188.90500718 C278.25996159 196.5666899 278.19433604 204.22842568 278.12920868 211.89017236 C277.99534533 227.62094788 277.85328585 243.35163805 277.7056427 259.08229065 C273.0806427 261.20729065 273.0806427 261.20729065 269.7056427 260.08229065 C267.31309694 259.85668389 264.91636147 259.6738047 262.5181427 259.51979065 C261.24583801 259.43600159 259.97353333 259.35221252 258.66267395 259.2658844 C257.68685364 259.20529846 256.71103333 259.14471252 255.7056427 259.08229065 C255.3756427 260.07229065 255.0456427 261.06229065 254.7056427 262.08229065 C254.0456427 261.75229065 253.3856427 261.42229065 252.7056427 261.08229065 C252.7056427 260.42229065 252.7056427 259.76229065 252.7056427 259.08229065 C251.7156427 259.41229065 250.7256427 259.74229065 249.7056427 260.08229065 C248.7056427 259.08229065 248.7056427 259.08229065 248.58538818 256.6842041 C248.5876088 255.62053116 248.58982941 254.55685822 248.59211731 253.46095276 C248.59219284 252.25978317 248.59226837 251.05861359 248.59234619 249.82104492 C248.59750748 248.51377945 248.60266876 247.20651398 248.60798645 245.8596344 C248.60985072 244.51584933 248.61127458 243.17206358 248.61227417 241.82827759 C248.61609868 238.28546788 248.62592838 234.74269895 248.63697815 231.1999054 C248.64719371 227.58713838 248.6517721 223.97436481 248.65681458 220.36158752 C248.66755072 213.26847185 248.68462634 206.17538391 248.7056427 199.08229065 C250.3556427 198.42229065 252.0056427 197.76229065 253.7056427 197.08229065 C253.7056427 197.74229065 253.7056427 198.40229065 253.7056427 199.08229065 C255.0256427 199.08229065 256.3456427 199.08229065 257.7056427 199.08229065 C258.0356427 198.09229065 258.3656427 197.10229065 258.7056427 196.08229065 C259.0356427 196.74229065 259.3656427 197.40229065 259.7056427 198.08229065 C259.82136647 186.26928169 259.91027173 174.45640701 259.96470356 162.6429472 C259.99082497 157.15776268 260.0262698 151.67296524 260.08283997 146.18800354 C260.13706846 140.89712521 260.16704406 135.60661974 260.18002892 130.315485 C260.18928525 128.29436686 260.20736039 126.27326969 260.23429298 124.2523098 C260.27046158 121.42654808 260.27559318 118.60233745 260.27326965 115.77638245 C260.29124603 114.93625107 260.30922241 114.09611969 260.32774353 113.23052979 C260.36169237 110.63810122 260.36169237 110.63810122 259.7056427 107.08229065 C257.45556916 104.85011951 257.45556916 104.85011951 254.7056427 104.08229065 C254.0456427 104.41229065 253.3856427 104.74229065 252.7056427 105.08229065 C252.7056427 104.09229065 252.7056427 103.10229065 252.7056427 102.08229065 C252.0868927 101.79354065 251.4681427 101.50479065 250.8306427 101.20729065 C248.7056427 100.08229065 248.7056427 100.08229065 246.7056427 98.08229065 C246.0456427 98.41229065 245.3856427 98.74229065 244.7056427 99.08229065 C243.96769285 97.37158873 243.23102612 95.66031576 242.5025177 93.9455719 C241.87758547 92.4843333 241.23282031 91.03157423 240.5806427 89.58229065 C238.46951302 83.55049157 238.59011492 77.38497271 238.7056427 71.08229065 C238.7056427 70.42229065 238.7056427 69.76229065 238.7056427 69.08229065 C235.42790766 69.83379088 235.42790766 69.83379088 233.7056427 73.08229065 C233.0456427 73.08229065 232.3856427 73.08229065 231.7056427 73.08229065 C231.7056427 73.74229065 231.7056427 74.40229065 231.7056427 75.08229065 C230.4207476 76.46236316 229.07548468 77.78649418 227.7056427 79.08229065 C225.12173105 81.60160451 222.73562615 84.0437405 220.5181427 86.89479065 C219.9200177 87.61666565 219.3218927 88.33854065 218.7056427 89.08229065 C218.0456427 89.08229065 217.3856427 89.08229065 216.7056427 89.08229065 C216.0456427 90.73229065 215.3856427 92.38229065 214.7056427 94.08229065 C214.0456427 94.08229065 213.3856427 94.08229065 212.7056427 94.08229065 C209.68046361 97.13787488 209.68046361 97.13787488 208.7056427 101.08229065 C208.0662677 101.35041565 207.4268927 101.61854065 206.7681427 101.89479065 C204.37432584 102.96896817 204.37432584 102.96896817 203.7056427 106.08229065 C201.72489243 107.44405646 199.72484607 108.77822181 197.7056427 110.08229065 C197.3756427 110.74229065 197.0456427 111.40229065 196.7056427 112.08229065 C196.0456427 112.08229065 195.3856427 112.08229065 194.7056427 112.08229065 C194.0456427 113.73229065 193.3856427 115.38229065 192.7056427 117.08229065 C191.7156427 117.08229065 190.7256427 117.08229065 189.7056427 117.08229065 C189.6231427 117.86604065 189.5406427 118.64979065 189.4556427 119.45729065 C188.7056427 122.08229065 188.7056427 122.08229065 186.8306427 123.14479065 C186.1293927 123.45416565 185.4281427 123.76354065 184.7056427 124.08229065 C183.69322585 125.40622037 182.69124881 126.73828232 181.7056427 128.08229065 C181.0456427 128.08229065 180.3856427 128.08229065 179.7056427 128.08229065 C179.6231427 129.15479065 179.5406427 130.22729065 179.4556427 131.33229065 C178.62168214 135.50209346 177.69008307 136.2843778 174.7056427 139.08229065 C173.90882952 141.72413606 173.90882952 141.72413606 173.7056427 144.08229065 C172.6331427 144.06166565 171.5606427 144.04104065 170.4556427 144.01979065 C166.95113799 143.88722669 166.95113799 143.88722669 164.7368927 144.7502594 C162.7056427 145.08229065 162.7056427 145.08229065 160.5650177 144.04322815 C159.86892395 143.51986877 159.1728302 142.9965094 158.4556427 142.45729065 C157.74923645 141.94940002 157.0428302 141.4415094 156.3150177 140.91822815 C154.7056427 139.08229065 154.7056427 139.08229065 154.3540802 136.65260315 C154.7223144 133.96040199 155.40305375 132.02342395 156.5806427 129.58229065 C157.12978333 128.41440002 157.12978333 128.41440002 157.6900177 127.22291565 C158.02517395 126.5165094 158.3603302 125.81010315 158.7056427 125.08229065 C159.38530946 123.42088302 160.05503175 121.75529024 160.7056427 120.08229065 C161.0562677 119.21604065 161.4068927 118.34979065 161.7681427 117.45729065 C162.46741617 115.68579785 163.10338278 113.88907042 163.7056427 112.08229065 C164.3656427 112.08229065 165.0256427 112.08229065 165.7056427 112.08229065 C164.98447648 108.82198403 164.98447648 108.82198403 161.8306427 107.39479065 C158.80955777 105.88867441 158.80955777 105.88867441 155.7056427 106.08229065 C155.3756427 105.09229065 155.0456427 104.10229065 154.7056427 103.08229065 C154.0456427 102.75229065 153.3856427 102.42229065 152.7056427 102.08229065 C152.8912677 103.17541565 153.0768927 104.26854065 153.2681427 105.39479065 C153.7056427 109.08229065 153.7056427 109.08229065 152.7056427 112.08229065 C152.49886306 114.77329792 152.33335189 117.45009773 152.2056427 120.14479065 C151.9528723 124.99338656 151.67868805 129.8173396 151.1431427 134.64479065 C150.68521239 138.81624957 150.6279575 142.88728994 150.7056427 147.08229065 C150.0456427 147.08229065 149.3856427 147.08229065 148.7056427 147.08229065 C148.85388489 147.94596252 149.00212708 148.8096344 149.15486145 149.69947815 C149.5009139 151.82487832 149.82011558 153.95500468 150.10017395 156.09010315 C151.01031418 162.87787797 152.48564824 169.07800416 154.80329895 175.5236969 C155.82030262 178.40740861 156.7056427 181.01417216 156.7056427 184.08229065 C157.3656427 184.41229065 158.0256427 184.74229065 158.7056427 185.08229065 C163.68487734 197.63466347 163.29159107 210.9526299 163.17219543 224.23146057 C163.14288365 227.8013398 163.15169689 231.369761 163.16462708 234.93971252 C163.1583984 237.22031868 163.15001431 239.5009202 163.13923645 241.7815094 C163.14217209 242.84294662 163.14510773 243.90438385 163.14813232 244.99798584 C163.02975432 254.22860365 163.02975432 254.22860365 159.7056427 258.08229065 C156.98932435 259.65489601 155.33682972 260.11385 152.2056427 259.95729065 C148.7670208 258.75377299 147.11352391 257.8914854 144.7056427 255.08229065 C144.19830688 252.27702198 144.01827338 249.58729778 143.94392395 246.73854065 C143.86907331 244.07908583 143.86907331 244.07908583 142.62361145 241.92604065 C141.7056427 240.08229065 141.7056427 240.08229065 142.7056427 237.08229065 C142.58704108 235.1234845 142.58704108 235.1234845 142.1822052 233.01979065 C142.04870667 232.22838684 141.91520813 231.43698303 141.77766418 230.62159729 C141.55638855 229.3646405 141.55638855 229.3646405 141.3306427 228.08229065 C140.43948083 222.77562322 139.56102536 217.51418856 139.1431427 212.14479065 C138.83362742 208.26674622 138.39507172 204.43233898 137.8306427 200.58229065 C137.68884583 199.60260315 137.54704895 198.62291565 137.4009552 197.61354065 C136.64321469 194.85502465 135.81207413 193.92964227 133.7056427 192.08229065 C133.37230937 190.74895732 133.03897603 189.41562398 132.7056427 188.08229065 C132.2106427 187.60791565 131.7156427 187.13354065 131.2056427 186.64479065 C129.23222394 184.58914611 129.24472971 182.84511159 128.7056427 180.08229065 C127.73291595 178.7289317 126.7317161 177.39566461 125.7056427 176.08229065 C125.3550177 175.19541565 125.0043927 174.30854065 124.6431427 173.39479065 C123.93760424 170.9229046 123.93760424 170.9229046 121.7056427 170.08229065 C122.0356427 171.07229065 122.3656427 172.06229065 122.7056427 173.08229065 C122.0456427 173.08229065 121.3856427 173.08229065 120.7056427 173.08229065 C120.6231427 173.65979065 120.5406427 174.23729065 120.4556427 174.83229065 C119.7056427 177.08229065 119.7056427 177.08229065 117.8306427 178.89479065 C115.61990801 181.17054695 114.62522695 183.24549867 113.49079895 186.18385315 C112.6834894 188.13585534 111.6907996 189.87485755 110.6431427 191.70729065 C107.87881766 197.20452794 107.49187921 203.04823743 106.7056427 209.08229065 C106.48479956 210.47773907 106.25796296 211.87224873 106.0259552 213.2658844 C104.28242936 223.74757838 102.91299578 234.23783528 101.79573059 244.80592346 C101.68221252 245.82396057 101.56869446 246.84199768 101.45173645 247.8908844 C101.35562073 248.79637024 101.259505 249.70185608 101.16047668 250.63478088 C100.69030709 253.16481317 100.08069179 254.91216717 98.7056427 257.08229065 C94.96645081 259.57508524 92.02600711 259.46969175 87.7056427 259.08229065 C84.7681427 258.45729065 84.7681427 258.45729065 82.7056427 257.08229065 C81.28310924 251.54376597 81.5263617 245.77529356 81.5025177 240.0940094 C81.49681763 239.03623795 81.49111755 237.97846649 81.48524475 236.88864136 C81.47582092 234.65543103 81.4692712 232.42220697 81.46540833 230.1889801 C81.45570567 226.79183951 81.42465795 223.39530503 81.3931427 219.99830627 C81.38661142 217.82187755 81.38136144 215.64544453 81.3775177 213.4690094 C81.3651709 212.46246811 81.3528241 211.45592682 81.34010315 210.41888428 C81.35754776 204.83300876 81.96330715 200.25215272 84.0059967 195.0352478 C84.88032034 192.800492 84.88032034 192.800492 85.2681427 189.14479065 C85.7056427 186.08229065 85.7056427 186.08229065 87.7056427 184.08229065 C88.51335114 182.22653055 88.51335114 182.22653055 89.17829895 180.09010315 C89.43804504 179.30248596 89.69779114 178.51486877 89.96540833 177.7033844 C90.23031067 176.87967346 90.49521301 176.05596252 90.7681427 175.20729065 C91.171297 173.98332581 91.171297 173.98332581 91.58259583 172.7346344 C93.01320569 168.38765114 93.01320569 168.38765114 94.22297668 163.97633362 C94.7056427 162.08229065 94.7056427 162.08229065 95.7681427 159.51979065 C97.08400009 154.69498023 96.86483014 150.05247616 96.7056427 145.08229065 C96.0456427 145.08229065 95.3856427 145.08229065 94.7056427 145.08229065 C94.7056427 141.12229065 94.7056427 137.16229065 94.7056427 133.08229065 C94.0456427 132.75229065 93.3856427 132.42229065 92.7056427 132.08229065 C93.0356427 131.09229065 93.3656427 130.10229065 93.7056427 129.08229065 C93.66828314 126.49873348 93.56915602 123.96887519 93.3931427 121.39479065 C93.34681702 120.67742737 93.30049133 119.96006409 93.25276184 119.22096252 C92.89573056 114.31498509 92.17733811 109.79171596 90.7056427 105.08229065 C89.5918927 105.82479065 89.5918927 105.82479065 88.4556427 106.58229065 C85.7056427 108.08229065 85.7056427 108.08229065 81.7056427 108.08229065 C82.18078225 113.59390944 83.05904142 117.16717398 85.7056427 122.08229065 C86.6483822 124.09109312 87.56270624 126.11336021 88.4556427 128.14479065 C88.90423645 129.14639221 89.3528302 130.14799377 89.8150177 131.1799469 C90.8049932 134.40605128 90.83822174 135.92687276 89.7056427 139.08229065 C87.74580685 141.61981916 85.49014736 143.49358554 82.7056427 145.08229065 C79.4556427 144.89479065 79.4556427 144.89479065 76.7056427 144.08229065 C75.7156427 144.41229065 74.7256427 144.74229065 73.7056427 145.08229065 C73.7056427 144.42229065 73.7056427 143.76229065 73.7056427 143.08229065 C72.7156427 142.75229065 71.7256427 142.42229065 70.7056427 142.08229065 C70.58704895 141.35268127 70.4684552 140.6230719 70.3462677 139.87135315 C69.10226472 134.45538896 66.58686523 129.36494237 61.9556427 126.20729065 C61.2131427 125.83604065 60.4706427 125.46479065 59.7056427 125.08229065 C59.3756427 124.09229065 59.0456427 123.10229065 58.7056427 122.08229065 C58.0456427 121.42229065 57.3856427 120.76229065 56.7056427 120.08229065 C55.78501739 118.98142243 54.8687952 117.87686532 53.9556427 116.76979065 C51.12009753 113.43750764 48.10430363 110.83014417 44.7056427 108.08229065 C43.03897603 106.41562398 41.37230937 104.74895732 39.7056427 103.08229065 C38.67311832 102.19652101 37.6312264 101.32156394 36.5806427 100.45729065 C30.80546757 95.6864938 30.80546757 95.6864938 30.4087677 93.28541565 C29.42008043 90.18752886 27.58953023 88.64189378 25.2681427 86.39479065 C24.46505676 85.60717346 23.66197083 84.81955627 22.83454895 84.0080719 C20.85720217 82.04625136 20.85720217 82.04625136 18.7056427 81.08229065 C17.8084552 79.69010315 17.8084552 79.69010315 16.8931427 78.26979065 C14.72860399 75.11574853 12.73742855 73.35613004 9.7056427 71.08229065 C8.35417132 69.76734553 7.01451728 68.43964207 5.7056427 67.08229065 C5.8912677 68.36104065 6.0768927 69.63979065 6.2681427 70.95729065 C7.07731811 78.415777 6.9466777 86.61911591 2.7056427 93.08229065 C-6.76932253 104.57394573 -6.76932253 104.57394573 -14.2943573 107.08229065 C-14.6243573 137.44229065 -14.9543573 167.80229065 -15.2943573 199.08229065 C-11.6643573 198.75229065 -8.0343573 198.42229065 -4.2943573 198.08229065 C-2.2943573 200.08229065 -2.2943573 200.08229065 -2.05384827 202.56266785 C-2.0605101 204.12819901 -2.0605101 204.12819901 -2.06730652 205.72535706 C-2.06745758 206.90643036 -2.06760864 208.08750366 -2.06776428 209.30436707 C-2.07808685 210.58459747 -2.08840942 211.86482788 -2.0990448 213.18385315 C-2.10187469 214.4905899 -2.10470459 215.79732666 -2.10762024 217.1436615 C-2.11525954 220.61911146 -2.1349104 224.09439448 -2.1570282 227.56977844 C-2.17748034 231.11559287 -2.18662059 234.66143425 -2.19670105 238.20729065 C-2.21815614 245.1656926 -2.25229557 252.12398361 -2.2943573 259.08229065 C-5.2943573 260.08229065 -5.2943573 260.08229065 -8.2943573 259.08229065 C-8.2943573 259.74229065 -8.2943573 260.40229065 -8.2943573 261.08229065 C-26.2943573 261.08229065 -26.2943573 261.08229065 -33.2943573 259.08229065 C-33.2943573 208.92229065 -33.2943573 158.76229065 -33.2943573 107.08229065 C-35.2743573 106.09229065 -37.2543573 105.10229065 -39.2943573 104.08229065 C-41.5599823 102.0393219 -41.5599823 102.0393219 -43.5443573 99.89479065 C-44.75811345 98.58929712 -46.00083966 97.30880175 -47.2943573 96.08229065 C-47.9543573 96.08229065 -48.6143573 96.08229065 -49.2943573 96.08229065 C-52.2943573 89.58229065 -52.2943573 89.58229065 -52.2943573 85.08229065 C-52.9543573 84.75229065 -53.6143573 84.42229065 -54.2943573 84.08229065 C-53.9643573 82.43229065 -53.6343573 80.78229065 -53.2943573 79.08229065 C-53.9543573 79.08229065 -54.6143573 79.08229065 -55.2943573 79.08229065 C-55.2943573 78.42229065 -55.2943573 77.76229065 -55.2943573 77.08229065 C-54.6343573 77.08229065 -53.9743573 77.08229065 -53.2943573 77.08229065 C-53.6243573 76.09229065 -53.9543573 75.10229065 -54.2943573 74.08229065 C-54.01665822 71.74168415 -53.68895753 69.40604757 -53.2943573 67.08229065 C-51.8093573 66.58729065 -51.8093573 66.58729065 -50.2943573 66.08229065 C-50.2737323 65.21604065 -50.2531073 64.34979065 -50.2318573 63.45729065 C-48.91528466 58.71762915 -46.0787704 56.98396536 -42.2943573 54.08229065 C-41.6343573 53.42229065 -40.9743573 52.76229065 -40.2943573 52.08229065 C-37.63307046 50.53702732 -36.44519735 50.08229065 -33.2943573 50.08229065 C-32.9643573 33.91229065 -32.6343573 17.74229065 -32.2943573 1.08229065 C-10.46953184 -0.06638437 -10.46953184 -0.06638437 0 0 Z M-26.2943573 7.08229065 C-26.2943573 20.61229065 -26.2943573 34.14229065 -26.2943573 48.08229065 C-23.3243573 47.58729065 -23.3243573 47.58729065 -20.2943573 47.08229065 C-20.2943573 35.53229065 -20.2943573 23.98229065 -20.2943573 12.08229065 C-18.46183538 12.08229065 -16.62931505 12.08554139 -14.79679489 12.08787727 C19.44454836 12.13107191 53.68588668 12.16415906 87.92725141 12.18442131 C92.13902642 12.18692271 96.35080137 12.18951136 100.56257629 12.19215393 C101.40106199 12.19267855 102.23954769 12.19320317 103.10344204 12.19374369 C116.68941496 12.2024521 130.27537099 12.21822496 143.86133388 12.23659624 C157.80009158 12.25528757 171.73884043 12.26640566 185.67761016 12.27046764 C194.28017184 12.27321404 202.88268576 12.28189331 211.48523274 12.29812358 C217.38061394 12.308681 223.27597038 12.3118941 229.17136034 12.3092934 C232.57446728 12.30801022 235.97749066 12.31000135 239.38058281 12.3207016 C243.06820674 12.3306102 246.75562413 12.32827436 250.44325256 12.32279968 C252.06041778 12.33153821 252.06041778 12.33153821 253.710253 12.34045327 C254.6984257 12.33647117 255.6865984 12.33248907 256.70471573 12.32838631 C257.98147167 12.32952547 257.98147167 12.32952547 259.28402066 12.33068764 C262.03921754 12.04807433 264.19019539 11.21455253 266.7056427 10.08229065 C266.54483215 11.0990387 266.38402161 12.11578674 266.21833801 13.16334534 C265.42640353 19.21674171 265.48053034 25.23481813 265.4556427 31.33229065 C265.4350177 32.61104065 265.4143927 33.88979065 265.3931427 35.20729065 C265.38798645 36.4293219 265.3828302 37.65135315 265.3775177 38.91041565 C265.36349915 40.57959045 265.36349915 40.57959045 265.34919739 42.28248596 C265.46136509 45.1165997 265.46136509 45.1165997 267.22615051 46.96803284 C267.71438293 47.33573792 268.20261536 47.70344299 268.7056427 48.08229065 C270.1906427 47.58729065 270.1906427 47.58729065 271.7056427 47.08229065 C271.73029045 41.54640532 271.74847766 36.01055165 271.76057434 30.47462463 C271.76561514 28.58985335 271.77244768 26.705086 271.78108215 24.82032776 C271.79315887 22.11727429 271.79887338 19.41427234 271.80329895 16.7111969 C271.80846024 15.86328079 271.81362152 15.01536469 271.81893921 14.14175415 C271.81913465 12.12157996 271.76770481 10.10151131 271.7056427 8.08229065 C270.70138738 6.8571774 270.70138738 6.8571774 268.67707151 6.95809215 C267.32431784 6.95866173 267.32431784 6.95866173 265.9442358 6.95924282 C264.90767627 6.95725177 263.87111673 6.95526072 262.8031463 6.95320934 C261.0740981 6.9575786 261.0740981 6.9575786 259.31011963 6.96203613 C257.48961542 6.9607545 257.48961542 6.9607545 255.63233334 6.95944697 C252.24830394 6.95807874 248.86433166 6.96122635 245.48030913 6.96622503 C241.83680254 6.97052611 238.19329784 6.96908335 234.54978943 6.96832275 C228.23209651 6.9677973 221.91441389 6.97094632 215.59672356 6.97656059 C206.46229927 6.98467271 197.32787998 6.98729052 188.19345248 6.98854858 C173.3750033 6.99073956 158.55655961 6.99740087 143.7381134 7.0068512 C129.33967618 7.01602414 114.94124045 7.02310555 100.5428009 7.02735901 C99.21248846 7.02775309 99.21248846 7.02775309 97.85530102 7.02815514 C93.4063025 7.02946014 88.95730397 7.03072385 84.50830543 7.03196704 C47.57408049 7.04234107 10.63986238 7.06023499 -26.2943573 7.08229065 Z M-15.2943573 18.08229065 C-16.0432834 24.77190982 -16.0432834 24.77190982 -13.0443573 27.76979065 C-11.6831073 28.91447815 -11.6831073 28.91447815 -10.2943573 30.08229065 C-8.05009538 32.25854463 -6.08518103 34.35298936 -4.1693573 36.83229065 C-3.5506073 37.57479065 -2.9318573 38.31729065 -2.2943573 39.08229065 C-1.6343573 39.08229065 -0.9743573 39.08229065 -0.2943573 39.08229065 C-0.0881073 39.80416565 0.1181427 40.52604065 0.3306427 41.26979065 C1.80384065 44.2831501 3.48342218 45.72540863 6.11579895 47.74635315 C7.80362726 49.16462657 9.08967296 50.66807519 10.4556427 52.39479065 C11.1981427 53.28166565 11.9406427 54.16854065 12.7056427 55.08229065 C13.3656427 55.08229065 14.0256427 55.08229065 14.7056427 55.08229065 C14.9325177 55.63916565 15.1593927 56.19604065 15.3931427 56.76979065 C17.08114306 59.74388652 19.17240787 61.8023793 21.7056427 64.08229065 C22.3656427 64.08229065 23.0256427 64.08229065 23.7056427 64.08229065 C24.2006427 66.06229065 24.2006427 66.06229065 24.7056427 68.08229065 C25.3656427 68.08229065 26.0256427 68.08229065 26.7056427 68.08229065 C27.0356427 69.07229065 27.3656427 70.06229065 27.7056427 71.08229065 C28.3656427 71.08229065 29.0256427 71.08229065 29.7056427 71.08229065 C29.9634552 71.6649469 30.2212677 72.24760315 30.4868927 72.84791565 C31.80398287 75.26258095 33.25652654 76.89969242 35.2056427 78.83229065 C35.8140802 79.4458844 36.4225177 80.05947815 37.0493927 80.69166565 C38.60048547 82.29663153 38.60048547 82.29663153 40.7056427 82.08229065 C40.9325177 82.80416565 41.1593927 83.52604065 41.3931427 84.26979065 C42.97896145 87.66797368 44.96687594 89.53460064 47.7056427 92.08229065 C49.0050177 93.41260315 49.0050177 93.41260315 50.3306427 94.76979065 C52.67650025 97.1950474 52.67650025 97.1950474 55.7056427 99.08229065 C56.6956427 97.59729065 56.6956427 97.59729065 57.7056427 96.08229065 C59.34196162 95.03336826 61.01050133 94.03322361 62.7056427 93.08229065 C65.7165789 91.07499985 66.33580767 90.2434484 67.7056427 87.08229065 C68.6956427 87.08229065 69.6856427 87.08229065 70.7056427 87.08229065 C74.18137707 83.95639938 74.18137707 83.95639938 76.7056427 80.08229065 C77.3656427 80.08229065 78.0256427 80.08229065 78.7056427 80.08229065 C79.2006427 79.09229065 79.2006427 79.09229065 79.7056427 78.08229065 C80.3037677 77.79354065 80.9018927 77.50479065 81.5181427 77.20729065 C83.82186238 76.16332627 83.82186238 76.16332627 85.6431427 74.14479065 C89.57647129 70.21146206 92.43969273 68.89435456 98.00642395 68.7893219 C100.01054034 68.80916464 102.01455171 68.84479702 104.0181427 68.89479065 C105.04488098 68.90832581 106.07161926 68.92186096 107.12947083 68.93580627 C109.65540179 68.97105182 112.1802493 69.02032365 114.7056427 69.08229065 C113.54742004 68.15996643 113.54742004 68.15996643 112.36579895 67.2190094 C106.70862073 62.67499107 102.31875626 58.33068908 100.7056427 51.08229065 C100.89313534 44.55910939 101.83212571 37.47754646 105.7056427 32.08229065 C110.86353744 28.08229065 110.86353744 28.08229065 113.7056427 28.08229065 C113.7056427 27.42229065 113.7056427 26.76229065 113.7056427 26.08229065 C115.74723365 26.05502905 117.78893233 26.0357772 119.8306427 26.01979065 C120.96759583 26.00818909 122.10454895 25.99658752 123.2759552 25.9846344 C131.73299987 26.22543863 131.73299987 26.22543863 135.3306427 29.39479065 C136.5062677 30.72510315 136.5062677 30.72510315 137.7056427 32.08229065 C138.4275177 32.72166565 139.1493927 33.36104065 139.8931427 34.01979065 C144.12166848 38.83156136 144.03007344 44.35112093 143.88923645 50.46510315 C143.44327864 56.82237407 141.37986185 59.86409288 136.7056427 64.08229065 C135.9012677 64.91760315 135.9012677 64.91760315 135.0806427 65.76979065 C133.7056427 67.08229065 133.7056427 67.08229065 130.7056427 69.08229065 C131.40648987 69.06134338 132.10733704 69.04039612 132.829422 69.01881409 C136.01718189 68.93546017 139.20471222 68.88356926 142.3931427 68.83229065 C143.49593567 68.79877502 144.59872864 68.7652594 145.73493958 68.73072815 C153.94971721 68.63145591 153.94971721 68.63145591 157.7447052 70.89479065 C158.39181458 71.61666565 159.03892395 72.33854065 159.7056427 73.08229065 C160.67050598 73.92533752 160.67050598 73.92533752 161.65486145 74.78541565 C162.82325021 75.82515036 163.98989211 76.86685109 165.15486145 77.91041565 C166.6476237 79.28325396 166.6476237 79.28325396 168.7056427 79.08229065 C168.7056427 79.74229065 168.7056427 80.40229065 168.7056427 81.08229065 C169.3656427 81.08229065 170.0256427 81.08229065 170.7056427 81.08229065 C171.0356427 82.07229065 171.3656427 83.06229065 171.7056427 84.08229065 C172.3656427 84.08229065 173.0256427 84.08229065 173.7056427 84.08229065 C175.39498192 85.72597205 177.05824194 87.39657825 178.7056427 89.08229065 C181.79717159 92.09777163 181.79717159 92.09777163 185.7056427 93.08229065 C185.7056427 93.74229065 185.7056427 94.40229065 185.7056427 95.08229065 C186.3656427 95.08229065 187.0256427 95.08229065 187.7056427 95.08229065 C188.3656427 95.74229065 189.0256427 96.40229065 189.7056427 97.08229065 C190.6956427 97.08229065 191.6856427 97.08229065 192.7056427 97.08229065 C194.53169813 94.76110632 194.53169813 94.76110632 195.7056427 92.08229065 C195.3756427 91.42229065 195.0456427 90.76229065 194.7056427 90.08229065 C195.6956427 90.41229065 196.6856427 90.74229065 197.7056427 91.08229065 C200.4352191 88.50435738 202.67513038 86.12996615 204.7056427 82.95729065 C206.8186981 79.91977352 208.59068455 78.93442793 211.7056427 77.08229065 C212.58386582 74.99695432 212.58386582 74.99695432 212.7056427 73.08229065 C213.3656427 73.08229065 214.0256427 73.08229065 214.7056427 73.08229065 C214.7056427 72.42229065 214.7056427 71.76229065 214.7056427 71.08229065 C215.3037677 71.02041565 215.9018927 70.95854065 216.5181427 70.89479065 C218.90411352 70.26774699 218.90411352 70.26774699 220.0181427 67.89479065 C221.97636102 64.63109345 224.23793878 62.76849273 227.1822052 60.4143219 C228.83536644 59.13865064 228.83536644 59.13865064 229.7056427 57.08229065 C231.2215802 55.84479065 231.2215802 55.84479065 232.7681427 54.58229065 C233.7375177 53.75729065 234.7068927 52.93229065 235.7056427 52.08229065 C235.7056427 51.42229065 235.7056427 50.76229065 235.7056427 50.08229065 C236.6956427 49.58729065 236.6956427 49.58729065 237.7056427 49.08229065 C241.60412846 46.35335061 242.9897484 44.42922289 244.7056427 40.08229065 C246.7681427 38.95729065 246.7681427 38.95729065 248.7056427 38.08229065 C249.0356427 37.09229065 249.3656427 36.10229065 249.7056427 35.08229065 C251.69895112 33.73897411 253.69949136 32.40635053 255.7056427 31.08229065 C258.15827228 28.44786441 258.15827228 28.44786441 258.7056427 25.08229065 C259.3656427 25.08229065 260.0256427 25.08229065 260.7056427 25.08229065 C260.7056427 22.77229065 260.7056427 20.46229065 260.7056427 18.08229065 C169.6256427 18.08229065 78.5456427 18.08229065 -15.2943573 18.08229065 Z M111.4556427 35.95729065 C107.53432657 40.71888881 106.37303039 43.77652235 106.40486145 49.8986969 C106.94534717 53.82248284 108.69852102 56.55630844 111.7056427 59.08229065 C112.6956427 59.41229065 113.6856427 59.74229065 114.7056427 60.08229065 C115.0356427 61.07229065 115.3656427 62.06229065 115.7056427 63.08229065 C117.28693299 63.30560264 118.87085359 63.51033709 120.4556427 63.70729065 C121.33736145 63.82330627 122.2190802 63.9393219 123.1275177 64.05885315 C125.93424148 64.08436882 127.33949136 63.53072909 129.7056427 62.08229065 C129.7056427 61.42229065 129.7056427 60.76229065 129.7056427 60.08229065 C130.6956427 60.41229065 131.6856427 60.74229065 132.7056427 61.08229065 C137.32974386 55.24633506 137.32974386 55.24633506 138.7056427 48.08229065 C138.07573302 43.27817953 137.38306017 38.49703545 133.7056427 35.08229065 C125.80375687 30.23340616 118.78183994 29.85212628 111.4556427 35.95729065 Z M259.7056427 43.08229065 C260.7056427 45.08229065 260.7056427 45.08229065 260.7056427 45.08229065 Z M-15.2943573 44.08229065 C-15.2943573 45.73229065 -15.2943573 47.38229065 -15.2943573 49.08229065 C-14.3043573 49.57729065 -14.3043573 49.57729065 -13.2943573 50.08229065 C-12.3043573 49.42229065 -11.3143573 48.76229065 -10.2943573 48.08229065 C-11.9443573 46.76229065 -13.5943573 45.44229065 -15.2943573 44.08229065 Z M258.7056427 45.08229065 C258.7056427 46.07229065 258.7056427 47.06229065 258.7056427 48.08229065 C259.3656427 48.41229065 260.0256427 48.74229065 260.7056427 49.08229065 C260.3756427 47.76229065 260.0456427 46.44229065 259.7056427 45.08229065 C259.3756427 45.08229065 259.0456427 45.08229065 258.7056427 45.08229065 Z M-9.2943573 50.08229065 C-9.2943573 50.74229065 -9.2943573 51.40229065 -9.2943573 52.08229065 C-8.6343573 51.75229065 -7.9743573 51.42229065 -7.2943573 51.08229065 C-7.9543573 50.75229065 -8.6143573 50.42229065 -9.2943573 50.08229065 Z M253.7056427 50.08229065 C253.3756427 50.74229065 253.0456427 51.40229065 252.7056427 52.08229065 C253.3656427 52.08229065 254.0256427 52.08229065 254.7056427 52.08229065 C254.3756427 51.42229065 254.0456427 50.76229065 253.7056427 50.08229065 Z M-42.2943573 63.08229065 C-45.49186622 66.84823822 -45.49186622 66.84823822 -46.0443573 71.45729065 C-45.7968573 71.99354065 -45.5493573 72.52979065 -45.2943573 73.08229065 C-45.9543573 73.08229065 -46.6143573 73.08229065 -47.2943573 73.08229065 C-48.05693983 81.04704151 -46.36499244 86.24943881 -42.2943573 93.08229065 C-41.6343573 93.08229065 -40.9743573 93.08229065 -40.2943573 93.08229065 C-40.2943573 93.74229065 -40.2943573 94.40229065 -40.2943573 95.08229065 C-39.2012323 95.70104065 -38.1081073 96.31979065 -36.9818573 96.95729065 C-34.6781317 98.26128627 -32.50273681 99.61003764 -30.2943573 101.08229065 C-24.56455781 102.22825055 -20.75119227 102.19820625 -15.2943573 100.08229065 C-14.7993573 99.09229065 -14.7993573 99.09229065 -14.2943573 98.08229065 C-11.7318573 97.45729065 -11.7318573 97.45729065 -9.2943573 97.08229065 C-9.2943573 96.42229065 -9.2943573 95.76229065 -9.2943573 95.08229065 C-8.3043573 94.75229065 -7.3143573 94.42229065 -6.2943573 94.08229065 C-3.94973807 90.42744303 -2.17530455 87.34020235 -1.2943573 83.08229065 C-0.7684198 82.09229065 -0.7684198 82.09229065 -0.2318573 81.08229065 C0.98859862 78.8467888 0.98859862 78.8467888 0.7056427 75.08229065 C0.0456427 75.08229065 -0.6143573 75.08229065 -1.2943573 75.08229065 C-1.0881073 74.33979065 -0.8818573 73.59729065 -0.6693573 72.83229065 C-0.24421358 69.71457004 -0.67084748 68.69794535 -2.2943573 66.08229065 C-2.7893573 65.09229065 -2.7893573 65.09229065 -3.2943573 64.08229065 C-3.9543573 64.08229065 -4.6143573 64.08229065 -5.2943573 64.08229065 C-5.4799823 63.52541565 -5.6656073 62.96854065 -5.8568573 62.39479065 C-8.36516499 58.35968697 -11.8864082 55.65919512 -16.5443573 54.54322815 C-18.80264868 54.27620045 -21.02210631 54.14912156 -23.2943573 54.08229065 C-24.3049823 53.97916565 -25.3156073 53.87604065 -26.3568573 53.76979065 C-32.98997179 54.47544113 -38.01907226 58.0944581 -42.2943573 63.08229065 Z M256.7056427 57.08229065 C256.7056427 57.74229065 256.7056427 58.40229065 256.7056427 59.08229065 C256.0868927 59.20604065 255.4681427 59.32979065 254.8306427 59.45729065 C252.51443438 59.95426421 252.51443438 59.95426421 250.7056427 62.08229065 C250.7056427 63.07229065 250.7056427 64.06229065 250.7056427 65.08229065 C250.0456427 65.08229065 249.3856427 65.08229065 248.7056427 65.08229065 C245.85850349 72.25098045 244.04772241 78.8545939 246.9556427 86.26979065 C247.8218927 87.66197815 247.8218927 87.66197815 248.7056427 89.08229065 C249.2418927 90.09291565 249.7781427 91.10354065 250.3306427 92.14479065 C253.50511124 96.071107 257.2116881 97.91213309 261.7056427 100.08229065 C261.7056427 100.41229065 261.7056427 100.74229065 261.7056427 101.08229065 C269.43940921 102.43263083 275.17140706 101.85321243 281.9556427 97.70729065 C282.5331427 97.17104065 283.1106427 96.63479065 283.7056427 96.08229065 C284.5512677 95.29854065 285.3968927 94.51479065 286.2681427 93.70729065 C290.90299211 88.71591436 292.33966807 84.74555296 292.7056427 78.08229065 C292.75333801 77.28436096 292.80103333 76.48643127 292.85017395 75.6643219 C292.68243123 72.66762084 291.88058671 70.52356567 290.7056427 67.76979065 C290.3343927 66.88678284 289.9631427 66.00377502 289.5806427 65.0940094 C289.2918927 64.43014221 289.0031427 63.76627502 288.7056427 63.08229065 C288.0456427 63.08229065 287.3856427 63.08229065 286.7056427 63.08229065 C286.5200177 62.50479065 286.3343927 61.92729065 286.1431427 61.33229065 C283.66668942 57.45610291 279.60055323 55.68068345 275.3306427 54.33229065 C268.23489337 53.656505 263.13710251 53.79814096 256.7056427 57.08229065 Z M240.7056427 64.08229065 C241.0356427 64.74229065 241.3656427 65.40229065 241.7056427 66.08229065 C242.0356427 65.42229065 242.3656427 64.76229065 242.7056427 64.08229065 C242.0456427 64.08229065 241.3856427 64.08229065 240.7056427 64.08229065 Z M90.7056427 77.08229065 C90.7056427 77.74229065 90.7056427 78.40229065 90.7056427 79.08229065 C89.9631427 79.30916565 89.2206427 79.53604065 88.4556427 79.76979065 C85.58869365 80.88603887 85.58869365 80.88603887 83.9556427 83.33229065 C81.84976855 85.90613684 80.33664134 87.09165993 77.5806427 88.83229065 C70.93082236 93.07100063 65.2243445 98.47457753 59.7056427 104.08229065 C60.99043311 105.58818453 62.28368352 107.0868644 63.5806427 108.58229065 C64.65958801 109.8352594 64.65958801 109.8352594 65.7603302 111.11354065 C66.40228333 111.76322815 67.04423645 112.41291565 67.7056427 113.08229065 C68.3656427 113.08229065 69.0256427 113.08229065 69.7056427 113.08229065 C70.1387677 114.04135315 70.1387677 114.04135315 70.5806427 115.01979065 C71.53387721 117.23435144 71.53387721 117.23435144 73.7056427 118.08229065 C73.7056427 117.42229065 73.7056427 116.76229065 73.7056427 116.08229065 C74.6956427 115.58729065 74.6956427 115.58729065 75.7056427 115.08229065 C74.9322052 114.03041565 74.9322052 114.03041565 74.1431427 112.95729065 C72.40120503 109.4734153 72.75871075 107.78393375 73.7056427 104.08229065 C74.6956427 104.41229065 75.6856427 104.74229065 76.7056427 105.08229065 C78.170819 103.88351004 79.63031158 102.67612118 81.0415802 101.4143219 C83.65312737 99.32385808 86.61222888 98.30898923 89.7056427 97.08229065 C92.39341164 95.78800473 95.04656383 94.43515534 97.7056427 93.08229065 C97.6850177 94.13416565 97.6643927 95.18604065 97.6431427 96.26979065 C97.58135304 99.86487608 97.58135304 99.86487608 98.2056427 102.45729065 C98.82508574 105.70936663 98.73190433 108.79318624 98.6431427 112.0940094 C98.56908081 114.15824279 98.56908081 114.15824279 99.7056427 116.08229065 C99.93048137 118.23941166 100.09903166 120.4024971 100.24079895 122.56666565 C100.28377609 123.21870972 100.32675323 123.87075378 100.37103271 124.54255676 C100.46135482 125.93115203 100.54947187 127.31989219 100.63557434 128.70875549 C100.76506354 130.78296731 100.90372469 132.85640846 101.04353333 134.9299469 C102.67266496 159.87921171 102.67266496 159.87921171 99.8931427 168.33229065 C99.52962708 169.47568909 99.16611145 170.61908752 98.7915802 171.7971344 C98.43322083 172.88123596 98.07486145 173.96533752 97.7056427 175.08229065 C97.13837496 177.0184001 96.57530674 178.95574946 96.0181427 180.89479065 C94.83237081 184.95556254 94.83237081 184.95556254 93.7056427 186.08229065 C93.66500438 187.7484618 93.6629217 189.4161716 93.7056427 191.08229065 C92.7156427 191.57729065 92.7156427 191.57729065 91.7056427 192.08229065 C91.02091605 193.96993968 91.02091605 193.96993968 90.5806427 196.14479065 C90.41306458 196.87826721 90.24548645 197.61174377 90.0728302 198.3674469 C89.95165833 198.93334534 89.83048645 199.49924377 89.7056427 200.08229065 C89.3756427 200.08229065 89.0456427 200.08229065 88.7056427 200.08229065 C88.62977091 207.45120166 88.57711834 214.8200125 88.54084778 222.18922424 C88.52573241 224.69772607 88.50523972 227.20620136 88.47932434 229.71461487 C88.44306228 233.31380247 88.42594396 236.91264165 88.41267395 240.51197815 C88.39719009 241.6390921 88.38170624 242.76620605 88.36575317 243.92747498 C88.36552658 244.96840302 88.36529999 246.00933105 88.36506653 247.08180237 C88.35840469 248.00113556 88.35174286 248.92046875 88.34487915 249.86766052 C88.46393112 250.59848846 88.58298309 251.32931641 88.7056427 252.08229065 C90.1906427 253.07229065 90.1906427 253.07229065 91.7056427 254.08229065 C92.3656427 253.42229065 93.0256427 252.76229065 93.7056427 252.08229065 C94.0356427 251.75229065 94.3656427 251.42229065 94.7056427 251.08229065 C94.99788515 248.5680778 95.15374106 246.05259972 95.32673645 243.52760315 C95.64410289 240.64185887 96.10369755 237.88615151 96.6509552 235.0393219 C98.0661951 227.47857394 98.74056034 219.8492751 99.47322083 212.19752502 C100.57941975 201.48389675 102.39783917 191.53748723 107.7056427 182.08229065 C108.0253302 181.42873596 108.3450177 180.77518127 108.6743927 180.1018219 C109.71664849 178.06073764 110.88958224 176.18723048 112.1431427 174.26979065 C113.78645498 171.68193524 115.1765071 169.17183063 116.3306427 166.33229065 C117.54122873 163.47090549 118.76358093 161.46573009 120.7056427 159.08229065 C121.0356427 158.42229065 121.3656427 157.76229065 121.7056427 157.08229065 C122.3656427 157.08229065 123.0256427 157.08229065 123.7056427 157.08229065 C126.33052977 160.60948266 128.14918851 163.9965984 129.7056427 168.08229065 C130.99820344 170.76973986 132.35305452 173.42466622 133.7056427 176.08229065 C134.37323642 177.41516005 135.04016465 178.74836367 135.7056427 180.08229065 C136.3656427 180.08229065 137.0256427 180.08229065 137.7056427 180.08229065 C137.8912677 181.19604065 137.8912677 181.19604065 138.0806427 182.33229065 C138.66684736 184.91159114 139.33848825 186.83050685 140.7056427 189.08229065 C141.3656427 189.41229065 142.0256427 189.74229065 142.7056427 190.08229065 C143.16252499 192.47718999 143.50289555 194.7900818 143.7681427 197.20729065 C143.92411926 198.50924377 144.08009583 199.8111969 144.24079895 201.15260315 C144.47089661 203.09779846 144.47089661 203.09779846 144.7056427 205.08229065 C145.29214124 209.34356912 145.9490607 213.58749165 146.6431427 217.83229065 C147.6865523 224.49765346 148.37995077 231.18262551 149.00813293 237.89772034 C149.0380258 241.81264106 149.0380258 241.81264106 150.7056427 245.08229065 C150.74657207 247.41526498 150.74805993 249.7493429 150.7056427 252.08229065 C151.3656427 252.41229065 152.0256427 252.74229065 152.7056427 253.08229065 C153.3656427 252.75229065 154.0256427 252.42229065 154.7056427 252.08229065 C154.7056427 251.42229065 154.7056427 250.76229065 154.7056427 250.08229065 C155.3656427 250.08229065 156.0256427 250.08229065 156.7056427 250.08229065 C156.7056427 233.91229065 156.7056427 217.74229065 156.7056427 201.08229065 C156.0456427 201.08229065 155.3856427 201.08229065 154.7056427 201.08229065 C154.90673645 200.52928284 155.1078302 199.97627502 155.3150177 199.4065094 C155.82328993 196.38228963 155.08522406 194.73102212 153.9556427 191.89479065 C153.58181458 190.92799377 153.20798645 189.9611969 152.8228302 188.96510315 C152.45415833 188.01377502 152.08548645 187.0624469 151.7056427 186.08229065 C150.67201887 183.09316227 149.69168958 180.08738589 148.7056427 177.08229065 C148.3343927 175.98916565 147.9631427 174.89604065 147.5806427 173.76979065 C146.7056427 171.08229065 146.7056427 171.08229065 146.24861145 169.1799469 C145.68269699 166.99364429 144.95121682 164.94031008 144.1431427 162.83229065 C143.87372864 162.1258844 143.60431458 161.41947815 143.32673645 160.69166565 C143.12177551 160.1605719 142.91681458 159.62947815 142.7056427 159.08229065 C142.0456427 159.08229065 141.3856427 159.08229065 140.7056427 159.08229065 C140.7056427 158.09229065 140.7056427 157.10229065 140.7056427 156.08229065 C141.3656427 156.08229065 142.0256427 156.08229065 142.7056427 156.08229065 C142.75462708 155.35268127 142.80361145 154.6230719 142.8540802 153.87135315 C143.25085704 148.33015934 143.71996054 142.81551513 144.39021301 137.30006409 C146.12470355 122.94866168 146.84998929 108.50734156 147.7056427 94.08229065 C151.69024163 94.08229065 153.47292569 95.77057943 156.67048645 97.98854065 C158.90780264 99.3978866 158.90780264 99.3978866 162.7056427 99.08229065 C163.2006427 100.56729065 163.2006427 100.56729065 163.7056427 102.08229065 C165.67864386 103.13455793 167.68240657 104.13017953 169.7056427 105.08229065 C171.06427671 106.04763587 172.40907407 107.03506214 173.7056427 108.08229065 C173.3306427 110.01979065 173.3306427 110.01979065 172.7056427 112.08229065 C171.7156427 112.57729065 171.7156427 112.57729065 170.7056427 113.08229065 C170.29835042 115.40385662 169.96125593 117.73916935 169.7056427 120.08229065 C170.85788298 119.15267643 172.00223446 118.21327815 173.1431427 117.26979065 C173.78122864 116.74772034 174.41931458 116.22565002 175.07673645 115.6877594 C176.9604702 114.07394654 176.9604702 114.07394654 177.7056427 111.08229065 C178.3037677 110.79354065 178.9018927 110.50479065 179.5181427 110.20729065 C182.46220351 108.69320223 183.89891682 106.82583736 185.7056427 104.08229065 C184.5569065 100.63608204 183.62982628 99.99059869 180.7681427 97.89479065 C180.05786926 97.36498596 179.34759583 96.83518127 178.61579895 96.2893219 C176.80044785 94.90422795 176.80044785 94.90422795 174.7056427 95.08229065 C174.2106427 93.59729065 174.2106427 93.59729065 173.7056427 92.08229065 C171.72489243 90.72052484 169.72484607 89.38635949 167.7056427 88.08229065 C167.2106427 87.09229065 167.2106427 87.09229065 166.7056427 86.08229065 C165.7156427 86.08229065 164.7256427 86.08229065 163.7056427 86.08229065 C163.7056427 85.42229065 163.7056427 84.76229065 163.7056427 84.08229065 C163.0456427 84.08229065 162.3856427 84.08229065 161.7056427 84.08229065 C161.7056427 83.42229065 161.7056427 82.76229065 161.7056427 82.08229065 C159.67256997 80.28967765 159.67256997 80.28967765 157.0806427 78.51979065 C156.22212708 77.89975159 155.36361145 77.27971252 154.4790802 76.6408844 C148.65224844 73.36636909 142.02818174 73.93533813 135.52204895 73.94947815 C134.54831833 73.94852142 133.57458771 73.9475647 132.5713501 73.94657898 C130.51805049 73.94590041 128.4647487 73.94773211 126.41145325 73.95191956 C123.2822534 73.95726654 120.15319745 73.95196655 117.02400208 73.9455719 C115.02335072 73.94623285 113.02269945 73.94751437 111.02204895 73.94947815 C110.09268021 73.94745392 109.16331146 73.94542969 108.20578003 73.94334412 C99.01325568 73.76283414 99.01325568 73.76283414 90.7056427 77.08229065 Z M91.7056427 103.08229065 C92.7056427 105.08229065 92.7056427 105.08229065 92.7056427 105.08229065 Z M-26.2943573 108.08229065 C-26.39090457 109.96790583 -26.41622971 111.8571852 -26.41461182 113.74526978 C-26.41598648 114.97511093 -26.41736115 116.20495209 -26.41877747 117.47206116 C-26.41523786 118.84742761 -26.41160304 120.22279382 -26.40788269 121.59815979 C-26.40760082 123.03671263 -26.40775854 124.47526561 -26.4083252 125.91381836 C-26.40861319 129.83100208 -26.40271614 133.74815544 -26.39575124 137.66533208 C-26.38951804 141.75462902 -26.38891393 145.84392658 -26.38772583 149.93322754 C-26.38461241 157.68221463 -26.37639889 165.43118768 -26.36637634 173.18016857 C-26.35521552 181.99985274 -26.34970483 190.81953756 -26.34468091 199.63922703 C-26.33421628 217.78692288 -26.31661664 235.93460564 -26.2943573 254.08229065 C-23.856561 254.136264 -21.41996045 254.17594681 -18.9818573 254.20729065 C-18.29156433 254.22404846 -17.60127136 254.24080627 -16.89006042 254.2580719 C-13.12300334 254.29446859 -11.51004026 254.22607929 -8.2943573 252.08229065 C-8.2943573 251.09229065 -8.2943573 250.10229065 -8.2943573 249.08229065 C-8.28952233 247.62769922 -8.28417141 246.17310948 -8.27848816 244.71852112 C-8.26057847 239.84971223 -8.2489664 234.98090777 -8.23942566 230.11207581 C-8.23437148 228.00529994 -8.22752949 225.89852763 -8.21891785 223.79176331 C-8.20685155 220.76099282 -8.20113078 217.73026818 -8.19670105 214.69947815 C-8.19153976 213.75160431 -8.18637848 212.80373047 -8.18106079 211.82713318 C-8.18098526 210.9559787 -8.18090973 210.08482422 -8.18083191 209.18727112 C-8.17750099 208.03169205 -8.17750099 208.03169205 -8.17410278 206.85276794 C-8.10119639 205.05626371 -8.10119639 205.05626371 -9.2943573 204.08229065 C-10.98044696 204.01023554 -12.66936389 203.99842997 -14.3568573 204.01979065 C-15.27595886 204.02881409 -16.19506042 204.03783752 -17.14201355 204.0471344 C-17.85228699 204.05873596 -18.56256042 204.07033752 -19.2943573 204.08229065 C-20.6241934 200.09278236 -20.42510403 196.27140009 -20.40788269 192.11280823 C-20.40802872 191.19553452 -20.40817474 190.2782608 -20.4083252 189.33319092 C-20.40762787 186.29771062 -20.39984386 183.26229149 -20.39201355 180.2268219 C-20.39014873 178.12360671 -20.38872513 176.02039108 -20.38772583 173.91717529 C-20.38390569 168.37859398 -20.37407967 162.84003885 -20.36302185 157.3014679 C-20.35279694 151.65093846 -20.34822589 146.00040479 -20.34318542 140.34986877 C-20.33245698 129.26066456 -20.31538656 118.17147978 -20.2943573 107.08229065 C-23.58366134 106.71543368 -23.58366134 106.71543368 -26.2943573 108.08229065 Z M265.7056427 107.08229065 C266.0356427 108.07229065 266.3656427 109.06229065 266.7056427 110.08229065 C266.3756427 110.41229065 266.0456427 110.74229065 265.7056427 111.08229065 C265.61041852 113.94320883 265.58010944 116.77992686 265.59211731 119.64112854 C265.59197128 120.53860306 265.59182526 121.43607758 265.5916748 122.36074829 C265.59237428 125.34217199 265.60016829 128.32353405 265.60798645 131.3049469 C265.60985051 133.36618007 265.61127447 135.42741369 265.61227417 137.48864746 C265.61610033 142.92533075 265.62593144 148.36198751 265.63697815 153.79866028 C265.64719017 159.34176779 265.65177134 164.88487957 265.65681458 170.42799377 C265.66755362 181.31277108 265.68463121 192.19752866 265.7056427 203.08229065 C259.7656427 203.57729065 259.7656427 203.57729065 253.7056427 204.08229065 C253.7056427 220.58229065 253.7056427 237.08229065 253.7056427 254.08229065 C259.3156427 254.08229065 264.9256427 254.08229065 270.7056427 254.08229065 C271.97717901 253.0340956 271.97717901 253.0340956 271.82869053 250.67910671 C271.82776874 249.6033743 271.82684694 248.52764189 271.82589722 247.41931152 C271.82727188 246.18947037 271.82864655 244.95962921 271.83006287 243.69252014 C271.82652326 242.31715369 271.82288844 240.94178748 271.81916809 239.56642151 C271.81888622 238.12786867 271.81904394 236.68931569 271.8196106 235.25076294 C271.81989859 231.33357922 271.81400154 227.41642586 271.80703664 223.49924922 C271.80080344 219.40995228 271.80019933 215.32065472 271.79901123 211.23135376 C271.79589781 203.48236667 271.78768429 195.73339362 271.77766174 187.98441273 C271.76650093 179.16472856 271.76099023 170.34504373 271.75596631 161.52535427 C271.74550168 143.37765842 271.72790204 125.22997566 271.7056427 107.08229065 C269.7256427 107.08229065 267.7456427 107.08229065 265.7056427 107.08229065 Z M75.7056427 117.08229065 C75.0456427 117.74229065 74.3856427 118.40229065 73.7056427 119.08229065 C75.6856427 120.07229065 75.6856427 120.07229065 77.7056427 121.08229065 C77.0456427 119.76229065 76.3856427 118.44229065 75.7056427 117.08229065 Z M77.7056427 121.08229065 C78.7056427 124.08229065 78.7056427 124.08229065 78.7056427 124.08229065 Z " fill="#020202" transform="translate(167.2943572998047,62.91770935058594)"/>
<path d="M0 0 C0.46702927 4.76369856 0.64062965 7.96672637 -1.9375 12.125 C-6.1911489 14.72927483 -9.27178902 14.04041244 -14 13 C-14 12.01 -14 11.02 -14 10 C-14.66 9.67 -15.32 9.34 -16 9 C-16.3125 6.25 -16.3125 6.25 -16 3 C-10.55528341 -2.59595872 -7.15701239 -2.33979251 0 0 Z M-8 4 C-8 4.99 -8 5.98 -8 7 C-7.34 6.34 -6.68 5.68 -6 5 C-6.66 4.67 -7.32 4.34 -8 4 Z " fill="#030303" transform="translate(151,135)"/>
<path d="M0 0 C1.3125 2.5625 1.3125 2.5625 2 5 C2.66 5 3.32 5 4 5 C3.16607751 8.12720935 2.45564406 10.47685312 0.3125 12.9375 C-3.17776419 14.5411349 -5.35500981 14.04142577 -9 13 C-11.5625 10.875 -11.5625 10.875 -13 8 C-12.625 4.3125 -12.625 4.3125 -11 1 C-7.21412734 -1.01913209 -4.02427013 -1.67677922 0 0 Z " fill="#020202" transform="translate(441,134)"/>
<path d="M0 0 C41.25 0 82.5 0 125 0 C125 0.33 125 0.66 125 1 C83.75 1 42.5 1 0 1 C0 0.67 0 0.34 0 0 Z " fill="#000200" transform="translate(152,73)"/>
<path d="M0 0 C37.95 0 75.9 0 115 0 C115 0.33 115 0.66 115 1 C77.05 1 39.1 1 0 1 C0 0.67 0 0.34 0 0 Z " fill="#000000" transform="translate(300,73)"/>
<path d="M0 0 C0.33 0 0.66 0 1 0 C1 12.87 1 25.74 1 39 C0.67 39 0.34 39 0 39 C0 26.13 0 13.26 0 0 Z " fill="#000000" transform="translate(157,273)"/>
<path d="M0 0 C0.33 0 0.66 0 1 0 C1 5.94 1 11.88 1 18 C0.67 18 0.34 18 0 18 C0 12.06 0 6.12 0 0 Z " fill="#000000" transform="translate(145,203)"/>
<path d="M0 0 C2.475 0.495 2.475 0.495 5 1 C3.68 1.33 2.36 1.66 1 2 C0.67 1.34 0.34 0.68 0 0 Z " fill="#000000" transform="translate(430,147)"/>
<path d="M0 0 C0.33 0 0.66 0 1 0 C1 1.65 1 3.3 1 5 C0.67 5 0.34 5 0 5 C0 3.35 0 1.7 0 0 Z " fill="#000000" transform="translate(145,99)"/>
<path d="M0 0 C1 4 1 4 1 4 Z " fill="#000000" transform="translate(258,306)"/>
<path d="M0 0 C0 3 0 3 0 3 Z " fill="#000000" transform="translate(435,77)"/>
<path d="" fill="#000000" transform="translate(0,0)"/>
<path d="" fill="#000000" transform="translate(0,0)"/>
<path d="M0 0 C0.99 0.495 0.99 0.495 2 1 C1.01 1.495 1.01 1.495 0 2 C0 1.34 0 0.68 0 0 Z " fill="#000000" transform="translate(156,268)"/>
<path d="" fill="#000000" transform="translate(0,0)"/>
<path d="" fill="#000000" transform="translate(0,0)"/>
<path d="" fill="#000000" transform="translate(0,0)"/>
<path d="M0 0 C0.66 0 1.32 0 2 0 C1.67 0.66 1.34 1.32 1 2 C0.67 1.34 0.34 0.68 0 0 Z " fill="#000000" transform="translate(219,179)"/>
<path d="M0 0 C0.33 0.66 0.66 1.32 1 2 C0.34 1.67 -0.32 1.34 -1 1 C-0.67 0.67 -0.34 0.34 0 0 Z " fill="#000000" transform="translate(346,171)"/>
<path d="" fill="#000000" transform="translate(0,0)"/>
<path d="M0 0 C3 1 3 1 3 1 Z " fill="#000000" transform="translate(435,149)"/>
<path d="M0 0 C0.66 0.66 1.32 1.32 2 2 C1.34 2 0.68 2 0 2 C0 1.34 0 0.68 0 0 Z " fill="#000000" transform="translate(188,146)"/>
<path d="" fill="#000000" transform="translate(0,0)"/>
<path d="M0 0 C3 1 3 1 3 1 Z " fill="#000000" transform="translate(304,130)"/>
<path d="M0 0 C3 1 3 1 3 1 Z " fill="#000000" transform="translate(275,130)"/>
<path d="" fill="#000000" transform="translate(0,0)"/>
<path d="" fill="#000000" transform="translate(0,0)"/>
<path d="M0 0 C3 1 3 1 3 1 Z " fill="#000000" transform="translate(423,73)"/>
<path d="M0 0 C2 1 2 1 2 1 Z " fill="#000000" transform="translate(255,323)"/>
<path d="M0 0 C2 1 2 1 2 1 Z " fill="#000000" transform="translate(314,321)"/>
<path d="" fill="#000000" transform="translate(0,0)"/>
<path d="" fill="#000000" transform="translate(0,0)"/>
<path d="" fill="#000000" transform="translate(0,0)"/>
<path d="" fill="#000000" transform="translate(0,0)"/>
<path d="" fill="#000000" transform="translate(0,0)"/>
<path d="" fill="#000000" transform="translate(0,0)"/>
<path d="" fill="#000000" transform="translate(0,0)"/>
<path d="" fill="#000000" transform="translate(0,0)"/>
<path d="" fill="#000000" transform="translate(0,0)"/>
<path d="" fill="#000000" transform="translate(0,0)"/>
<path d="" fill="#000000" transform="translate(0,0)"/>
<path d="" fill="#000000" transform="translate(0,0)"/>
<path d="" fill="#000000" transform="translate(0,0)"/>
<path d="" fill="#000000" transform="translate(0,0)"/>
<path d="M0 0 C2 1 2 1 2 1 Z " fill="#000000" transform="translate(322,203)"/>
<path d="" fill="#000000" transform="translate(0,0)"/>
<path d="" fill="#000000" transform="translate(0,0)"/>
<path d="" fill="#000000" transform="translate(0,0)"/>
<path d="" fill="#000000" transform="translate(0,0)"/>
<path d="" fill="#000000" transform="translate(0,0)"/>
<path d="" fill="#000000" transform="translate(0,0)"/>
<path d="M0 0 C2 1 2 1 2 1 Z " fill="#000000" transform="translate(222,182)"/>
<path d="M0 0 C2 1 2 1 2 1 Z " fill="#000000" transform="translate(237,175)"/>
<path d="M0 0 C2 1 2 1 2 1 Z " fill="#000000" transform="translate(435,174)"/>
<path d="" fill="#000000" transform="translate(0,0)"/>
<path d="" fill="#000000" transform="translate(0,0)"/>
<path d="" fill="#000000" transform="translate(0,0)"/>
<path d="M0 0 C2 1 2 1 2 1 Z " fill="#000000" transform="translate(144,172)"/>
<path d="" fill="#000000" transform="translate(0,0)"/>
<path d="" fill="#000000" transform="translate(0,0)"/>
<path d="M0 0 C2 1 2 1 2 1 Z " fill="#000000" transform="translate(333,164)"/>
<path d="M0 0 C2 1 2 1 2 1 Z " fill="#000000" transform="translate(435,163)"/>
<path d="M0 0 C2 1 2 1 2 1 Z " fill="#000000" transform="translate(331,163)"/>
<path d="M0 0 C2 1 2 1 2 1 Z " fill="#000000" transform="translate(122,163)"/>
<path d="M0 0 C2 1 2 1 2 1 Z " fill="#000000" transform="translate(138,162)"/>
<path d="M0 0 C2 1 2 1 2 1 Z " fill="#000000" transform="translate(241,155)"/>
<path d="M0 0 C2 1 2 1 2 1 Z " fill="#000000" transform="translate(453,154)"/>
<path d="" fill="#000000" transform="translate(0,0)"/>
<path d="M0 0 C2 1 2 1 2 1 Z " fill="#000000" transform="translate(125,153)"/>
<path d="M0 0 C2 1 2 1 2 1 Z " fill="#000000" transform="translate(172,151)"/>
<path d="" fill="#000000" transform="translate(0,0)"/>
<path d="" fill="#000000" transform="translate(0,0)"/>
<path d="" fill="#000000" transform="translate(0,0)"/>
<path d="M0 0 C2 1 2 1 2 1 Z " fill="#000000" transform="translate(397,139)"/>
<path d="M0 0 C2 1 2 1 2 1 Z " fill="#000000" transform="translate(181,139)"/>
<path d="" fill="#000000" transform="translate(0,0)"/>
<path d="" fill="#000000" transform="translate(0,0)"/>
<path d="" fill="#000000" transform="translate(0,0)"/>
<path d="M0 0 C2 1 2 1 2 1 Z " fill="#000000" transform="translate(138,133)"/>
<path d="" fill="#000000" transform="translate(0,0)"/>
<path d="" fill="#000000" transform="translate(0,0)"/>
<path d="M0 0 C2 1 2 1 2 1 Z " fill="#000000" transform="translate(145,132)"/>
<path d="M0 0 C2 1 2 1 2 1 Z " fill="#000000" transform="translate(312,130)"/>
<path d="M0 0 C2 1 2 1 2 1 Z " fill="#000000" transform="translate(283,124)"/>
<path d="M0 0 C2 1 2 1 2 1 Z " fill="#000000" transform="translate(421,123)"/>
<path d="M0 0 C2 1 2 1 2 1 Z " fill="#000000" transform="translate(157,123)"/>
<path d="" fill="#000000" transform="translate(0,0)"/>
<path d="" fill="#000000" transform="translate(0,0)"/>
<path d="" fill="#000000" transform="translate(0,0)"/>
<path d="" fill="#000000" transform="translate(0,0)"/>
<path d="" fill="#000000" transform="translate(0,0)"/>
<path d="" fill="#000000" transform="translate(0,0)"/>
<path d="M0 0 C2 1 2 1 2 1 Z " fill="#000000" transform="translate(427,73)"/>
<path d="M0 0 C2 1 2 1 2 1 Z " fill="#0E0E0E" transform="translate(149,73)"/>
<path d="" fill="#000000" transform="translate(0,0)"/>
<path d="" fill="#FFFFFF" transform="translate(0,0)"/>
<path d="" fill="#FFFFFF" transform="translate(0,0)"/>
<path d="" fill="#FFFFFF" transform="translate(0,0)"/>
<path d="" fill="#FFFFFF" transform="translate(0,0)"/>
<path d="" fill="#FFFFFF" transform="translate(0,0)"/>
<path d="" fill="#FFFFFF" transform="translate(0,0)"/>
<path d="" fill="#FFFFFF" transform="translate(0,0)"/>
<path d="" fill="#FFFFFF" transform="translate(0,0)"/>
<path d="" fill="#FFFFFF" transform="translate(0,0)"/>
<path d="" fill="#FFFFFF" transform="translate(0,0)"/>
<path d="" fill="#FFFFFF" transform="translate(0,0)"/>
<path d="" fill="#FFFFFF" transform="translate(0,0)"/>
<path d="" fill="#FFFFFF" transform="translate(0,0)"/>
<path d="" fill="#FFFFFF" transform="translate(0,0)"/>
<path d="" fill="#FFFFFF" transform="translate(0,0)"/>
<path d="" fill="#000000" transform="translate(0,0)"/>
<path d="" fill="#000000" transform="translate(0,0)"/>
<path d="" fill="#000000" transform="translate(0,0)"/>
<path d="" fill="#000000" transform="translate(0,0)"/>
<path d="" fill="#000000" transform="translate(0,0)"/>
<path d="" fill="#000000" transform="translate(0,0)"/>
<path d="" fill="#000000" transform="translate(0,0)"/>
<path d="" fill="#000000" transform="translate(0,0)"/>
<path d="" fill="#000000" transform="translate(0,0)"/>
<path d="" fill="#000000" transform="translate(0,0)"/>
<path d="" fill="#000000" transform="translate(0,0)"/>
<path d="" fill="#FFFFFF" transform="translate(0,0)"/>
<path d="" fill="#000000" transform="translate(0,0)"/>
<path d="" fill="#FFFFFF" transform="translate(0,0)"/>
<path d="" fill="#000000" transform="translate(0,0)"/>
<path d="" fill="#FFFFFF" transform="translate(0,0)"/>
<path d="" fill="#FFFFFF" transform="translate(0,0)"/>
<path d="" fill="#000000" transform="translate(0,0)"/>
<path d="" fill="#000000" transform="translate(0,0)"/>
<path d="" fill="#000000" transform="translate(0,0)"/>
<path d="" fill="#000000" transform="translate(0,0)"/>
<path d="" fill="#FFFFFF" transform="translate(0,0)"/>
<path d="" fill="#FFFFFF" transform="translate(0,0)"/>
<path d="" fill="#FFFFFF" transform="translate(0,0)"/>
<path d="" fill="#FFFFFF" transform="translate(0,0)"/>
<path d="" fill="#FFFFFF" transform="translate(0,0)"/>
<path d="" fill="#000000" transform="translate(0,0)"/>
<path d="" fill="#FFFFFF" transform="translate(0,0)"/>
<path d="" fill="#000000" transform="translate(0,0)"/>
<path d="" fill="#FFFFFF" transform="translate(0,0)"/>
<path d="" fill="#FFFFFF" transform="translate(0,0)"/>
<path d="" fill="#FFFFFF" transform="translate(0,0)"/>
<path d="" fill="#FFFFFF" transform="translate(0,0)"/>
<path d="" fill="#FFFFFF" transform="translate(0,0)"/>
<path d="" fill="#000000" transform="translate(0,0)"/>
<path d="" fill="#000000" transform="translate(0,0)"/>
<path d="" fill="#000000" transform="translate(0,0)"/>
<path d="" fill="#000000" transform="translate(0,0)"/>
<path d="" fill="#000000" transform="translate(0,0)"/>
<path d="" fill="#000000" transform="translate(0,0)"/>
<path d="" fill="#FFFFFF" transform="translate(0,0)"/>
<path d="" fill="#000000" transform="translate(0,0)"/>
<path d="" fill="#000000" transform="translate(0,0)"/>
<path d="" fill="#FFFFFF" transform="translate(0,0)"/>
<path d="" fill="#000000" transform="translate(0,0)"/>
<path d="" fill="#000000" transform="translate(0,0)"/>
<path d="" fill="#000000" transform="translate(0,0)"/>
<path d="" fill="#000000" transform="translate(0,0)"/>
<path d="" fill="#FFFFFF" transform="translate(0,0)"/>
<path d="" fill="#000000" transform="translate(0,0)"/>
<path d="" fill="#000000" transform="translate(0,0)"/>
<path d="" fill="#000000" transform="translate(0,0)"/>
<path d="" fill="#000000" transform="translate(0,0)"/>
<path d="" fill="#000000" transform="translate(0,0)"/>
<path d="" fill="#000000" transform="translate(0,0)"/>
<path d="" fill="#000000" transform="translate(0,0)"/>
<path d="" fill="#000000" transform="translate(0,0)"/>
<path d="" fill="#FFFFFF" transform="translate(0,0)"/>
<path d="" fill="#FFFFFF" transform="translate(0,0)"/>
<path d="" fill="#000000" transform="translate(0,0)"/>
<path d="" fill="#000000" transform="translate(0,0)"/>
<path d="" fill="#FFFFFF" transform="translate(0,0)"/>
<path d="" fill="#000000" transform="translate(0,0)"/>
<path d="" fill="#000000" transform="translate(0,0)"/>
<path d="" fill="#000000" transform="translate(0,0)"/>
<path d="" fill="#FFFFFF" transform="translate(0,0)"/>
<path d="" fill="#000000" transform="translate(0,0)"/>
<path d="" fill="#FFFFFF" transform="translate(0,0)"/>
<path d="" fill="#000000" transform="translate(0,0)"/>
<path d="" fill="#000000" transform="translate(0,0)"/>
<path d="" fill="#000000" transform="translate(0,0)"/>
<path d="" fill="#000000" transform="translate(0,0)"/>
<path d="" fill="#000000" transform="translate(0,0)"/>
<path d="" fill="#000000" transform="translate(0,0)"/>
<path d="" fill="#FFFFFF" transform="translate(0,0)"/>
<path d="" fill="#000000" transform="translate(0,0)"/>
<path d="" fill="#FFFFFF" transform="translate(0,0)"/>
<path d="" fill="#000000" transform="translate(0,0)"/>
<path d="" fill="#000000" transform="translate(0,0)"/>
<path d="" fill="#000000" transform="translate(0,0)"/>
<path d="" fill="#000000" transform="translate(0,0)"/>
<path d="" fill="#FFFFFF" transform="translate(0,0)"/>
<path d="" fill="#000000" transform="translate(0,0)"/>
<path d="" fill="#000000" transform="translate(0,0)"/>
<path d="" fill="#000000" transform="translate(0,0)"/>
<path d="" fill="#000000" transform="translate(0,0)"/>
<path d="" fill="#FFFFFF" transform="translate(0,0)"/>
<path d="" fill="#000000" transform="translate(0,0)"/>
<path d="" fill="#000000" transform="translate(0,0)"/>
<path d="" fill="#FFFFFF" transform="translate(0,0)"/>
<path d="" fill="#000000" transform="translate(0,0)"/>
<path d="" fill="#000000" transform="translate(0,0)"/>
<path d="" fill="#000000" transform="translate(0,0)"/>
<path d="" fill="#000000" transform="translate(0,0)"/>
<path d="" fill="#000000" transform="translate(0,0)"/>
<path d="" fill="#000000" transform="translate(0,0)"/>
<path d="" fill="#000000" transform="translate(0,0)"/>
<path d="" fill="#000000" transform="translate(0,0)"/>
<path d="" fill="#FFFFFF" transform="translate(0,0)"/>
<path d="" fill="#000000" transform="translate(0,0)"/>
<path d="" fill="#000000" transform="translate(0,0)"/>
<path d="" fill="#FFFFFF" transform="translate(0,0)"/>
<path d="" fill="#000000" transform="translate(0,0)"/>
<path d="" fill="#000000" transform="translate(0,0)"/>
<path d="" fill="#000000" transform="translate(0,0)"/>
<path d="" fill="#FFFFFF" transform="translate(0,0)"/>
<path d="" fill="#000000" transform="translate(0,0)"/>
<path d="" fill="#000000" transform="translate(0,0)"/>
<path d="" fill="#000000" transform="translate(0,0)"/>
<path d="" fill="#000000" transform="translate(0,0)"/>
<path d="" fill="#000000" transform="translate(0,0)"/>
<path d="" fill="#000000" transform="translate(0,0)"/>
<path d="" fill="#000000" transform="translate(0,0)"/>
<path d="" fill="#000000" transform="translate(0,0)"/>
<path d="" fill="#000000" transform="translate(0,0)"/>
<path d="" fill="#000000" transform="translate(0,0)"/>
<path d="" fill="#000000" transform="translate(0,0)"/>
<path d="" fill="#000000" transform="translate(0,0)"/>
<path d="" fill="#000000" transform="translate(0,0)"/>
<path d="" fill="#000000" transform="translate(0,0)"/>
<path d="" fill="#FFFFFF" transform="translate(0,0)"/>
<path d="" fill="#000000" transform="translate(0,0)"/>
<path d="" fill="#000000" transform="translate(0,0)"/>
<path d="" fill="#000000" transform="translate(0,0)"/>
<path d="" fill="#000000" transform="translate(0,0)"/>
<path d="" fill="#000000" transform="translate(0,0)"/>
<path d="" fill="#000000" transform="translate(0,0)"/>
<path d="" fill="#000000" transform="translate(0,0)"/>
<path d="" fill="#FFFFFF" transform="translate(0,0)"/>
<path d="" fill="#000000" transform="translate(0,0)"/>
<path d="" fill="#000000" transform="translate(0,0)"/>
<path d="" fill="#000000" transform="translate(0,0)"/>
<path d="" fill="#000000" transform="translate(0,0)"/>
<path d="" fill="#FFFFFF" transform="translate(0,0)"/>
<path d="" fill="#000000" transform="translate(0,0)"/>
<path d="" fill="#FFFFFF" transform="translate(0,0)"/>
<path d="" fill="#000000" transform="translate(0,0)"/>
<path d="" fill="#000000" transform="translate(0,0)"/>
<path d="" fill="#000000" transform="translate(0,0)"/>
<path d="" fill="#000001" transform="translate(0,0)"/>
<path d="" fill="#FFFFFF" transform="translate(0,0)"/>
<path d="" fill="#000000" transform="translate(0,0)"/>
<path d="" fill="#000000" transform="translate(0,0)"/>
<path d="" fill="#000000" transform="translate(0,0)"/>
<path d="" fill="#000000" transform="translate(0,0)"/>
<path d="" fill="#000000" transform="translate(0,0)"/>
<path d="" fill="#000000" transform="translate(0,0)"/>
<path d="" fill="#000000" transform="translate(0,0)"/>
<path d="" fill="#000000" transform="translate(0,0)"/>
<path d="" fill="#000000" transform="translate(0,0)"/>
<path d="" fill="#000000" transform="translate(0,0)"/>
<path d="" fill="#000000" transform="translate(0,0)"/>
<path d="" fill="#000000" transform="translate(0,0)"/>
<path d="" fill="#000000" transform="translate(0,0)"/>
<path d="" fill="#000000" transform="translate(0,0)"/>
<path d="" fill="#000000" transform="translate(0,0)"/>
<path d="" fill="#000000" transform="translate(0,0)"/>
<path d="" fill="#000000" transform="translate(0,0)"/>
<path d="" fill="#000000" transform="translate(0,0)"/>
<path d="" fill="#000000" transform="translate(0,0)"/>
<path d="" fill="#000000" transform="translate(0,0)"/>
<path d="" fill="#000000" transform="translate(0,0)"/>
<path d="" fill="#000000" transform="translate(0,0)"/>
<path d="" fill="#000000" transform="translate(0,0)"/>
<path d="" fill="#000000" transform="translate(0,0)"/>
<path d="" fill="#000000" transform="translate(0,0)"/>
<path d="" fill="#000000" transform="translate(0,0)"/>
<path d="" fill="#000000" transform="translate(0,0)"/>
<path d="" fill="#FFFFFF" transform="translate(0,0)"/>
<path d="" fill="#000000" transform="translate(0,0)"/>
<path d="" fill="#000000" transform="translate(0,0)"/>
<path d="" fill="#000000" transform="translate(0,0)"/>
<path d="" fill="#000000" transform="translate(0,0)"/>
<path d="" fill="#000000" transform="translate(0,0)"/>
<path d="" fill="#000000" transform="translate(0,0)"/>
<path d="" fill="#000000" transform="translate(0,0)"/>
<path d="" fill="#000000" transform="translate(0,0)"/>
<path d="" fill="#000000" transform="translate(0,0)"/>
<path d="" fill="#000000" transform="translate(0,0)"/>
<path d="" fill="#000000" transform="translate(0,0)"/>
<path d="" fill="#000000" transform="translate(0,0)"/>
<path d="" fill="#000000" transform="translate(0,0)"/>
<path d="" fill="#000000" transform="translate(0,0)"/>
<path d="" fill="#000000" transform="translate(0,0)"/>
<path d="" fill="#000000" transform="translate(0,0)"/>
<path d="" fill="#000000" transform="translate(0,0)"/>
<path d="" fill="#000000" transform="translate(0,0)"/>
<path d="" fill="#000000" transform="translate(0,0)"/>
<path d="" fill="#000000" transform="translate(0,0)"/>
<path d="" fill="#000000" transform="translate(0,0)"/>
<path d="" fill="#000000" transform="translate(0,0)"/>
<path d="" fill="#000000" transform="translate(0,0)"/>
<path d="" fill="#000000" transform="translate(0,0)"/>
<path d="" fill="#000000" transform="translate(0,0)"/>
<path d="" fill="#000000" transform="translate(0,0)"/>
<path d="" fill="#000000" transform="translate(0,0)"/>
<path d="" fill="#000000" transform="translate(0,0)"/>
<path d="" fill="#000000" transform="translate(0,0)"/>
<path d="" fill="#000000" transform="translate(0,0)"/>
<path d="" fill="#000000" transform="translate(0,0)"/>
<path d="" fill="#000000" transform="translate(0,0)"/>
<path d="" fill="#000000" transform="translate(0,0)"/>
<path d="" fill="#000000" transform="translate(0,0)"/>
<path d="" fill="#000000" transform="translate(0,0)"/>
<path d="" fill="#000000" transform="translate(0,0)"/>
<path d="" fill="#000000" transform="translate(0,0)"/>
<path d="" fill="#000000" transform="translate(0,0)"/>
<path d="" fill="#000000" transform="translate(0,0)"/>
<path d="" fill="#000000" transform="translate(0,0)"/>
<path d="" fill="#000000" transform="translate(0,0)"/>
<path d="" fill="#0D0D0D" transform="translate(0,0)"/>
<path d="" fill="#000000" transform="translate(0,0)"/>
<path d="" fill="#000000" transform="translate(0,0)"/>
<path d="" fill="#000000" transform="translate(0,0)"/>
<path d="" fill="#000000" transform="translate(0,0)"/>
<path d="" fill="#000000" transform="translate(0,0)"/>
<path d="" fill="#000000" transform="translate(0,0)"/>
<path d="" fill="#000000" transform="translate(0,0)"/>
<path d="" fill="#000000" transform="translate(0,0)"/>
<path d="" fill="#000000" transform="translate(0,0)"/>
<path d="" fill="#FFFFFF" transform="translate(0,0)"/>
<path d="" fill="#000000" transform="translate(0,0)"/>
<path d="" fill="#000000" transform="translate(0,0)"/>
<path d="" fill="#000000" transform="translate(0,0)"/>
<path d="" fill="#000000" transform="translate(0,0)"/>
<path d="" fill="#000000" transform="translate(0,0)"/>
<path d="" fill="#FFFFFF" transform="translate(0,0)"/>
<path d="" fill="#000000" transform="translate(0,0)"/>
<path d="" fill="#000000" transform="translate(0,0)"/>
<path d="" fill="#000000" transform="translate(0,0)"/>
<path d="" fill="#000000" transform="translate(0,0)"/>
<path d="" fill="#000000" transform="translate(0,0)"/>
<path d="" fill="#000000" transform="translate(0,0)"/>
<path d="" fill="#000000" transform="translate(0,0)"/>
<path d="" fill="#000000" transform="translate(0,0)"/>
<path d="" fill="#000000" transform="translate(0,0)"/>
<path d="" fill="#000000" transform="translate(0,0)"/>
<path d="" fill="#000000" transform="translate(0,0)"/>
<path d="" fill="#000000" transform="translate(0,0)"/>
<path d="" fill="#000000" transform="translate(0,0)"/>
<path d="" fill="#000000" transform="translate(0,0)"/>
<path d="" fill="#000000" transform="translate(0,0)"/>
<path d="" fill="#000000" transform="translate(0,0)"/>
<path d="" fill="#000000" transform="translate(0,0)"/>
<path d="" fill="#FFFFFF" transform="translate(0,0)"/>
<path d="" fill="#000000" transform="translate(0,0)"/>
<path d="" fill="#000000" transform="translate(0,0)"/>
<path d="" fill="#000000" transform="translate(0,0)"/>
<path d="" fill="#000000" transform="translate(0,0)"/>
<path d="" fill="#000000" transform="translate(0,0)"/>
<path d="" fill="#000000" transform="translate(0,0)"/>
<path d="" fill="#000000" transform="translate(0,0)"/>
<path d="" fill="#000000" transform="translate(0,0)"/>
<path d="" fill="#FFFFFF" transform="translate(0,0)"/>
<path d="" fill="#000000" transform="translate(0,0)"/>
<path d="" fill="#000000" transform="translate(0,0)"/>
<path d="" fill="#000000" transform="translate(0,0)"/>
<path d="" fill="#000000" transform="translate(0,0)"/>
<path d="" fill="#000000" transform="translate(0,0)"/>
<path d="" fill="#000000" transform="translate(0,0)"/>
<path d="" fill="#000000" transform="translate(0,0)"/>
<path d="" fill="#000000" transform="translate(0,0)"/>
<path d="" fill="#000000" transform="translate(0,0)"/>
<path d="" fill="#000000" transform="translate(0,0)"/>
<path d="" fill="#000000" transform="translate(0,0)"/>
<path d="" fill="#000000" transform="translate(0,0)"/>
<path d="" fill="#000000" transform="translate(0,0)"/>
<path d="" fill="#000000" transform="translate(0,0)"/>
<path d="" fill="#000000" transform="translate(0,0)"/>
<path d="" fill="#000000" transform="translate(0,0)"/>
<path d="" fill="#000000" transform="translate(0,0)"/>
<path d="" fill="#000000" transform="translate(0,0)"/>
<path d="" fill="#000000" transform="translate(0,0)"/>
<path d="" fill="#000000" transform="translate(0,0)"/>
<path d="" fill="#000000" transform="translate(0,0)"/>
<path d="" fill="#000000" transform="translate(0,0)"/>
<path d="" fill="#000000" transform="translate(0,0)"/>
<path d="" fill="#000000" transform="translate(0,0)"/>
<path d="" fill="#000000" transform="translate(0,0)"/>
<path d="" fill="#000000" transform="translate(0,0)"/>
<path d="" fill="#000000" transform="translate(0,0)"/>
<path d="" fill="#000000" transform="translate(0,0)"/>
<path d="" fill="#000000" transform="translate(0,0)"/>
<path d="" fill="#000000" transform="translate(0,0)"/>
<path d="" fill="#000000" transform="translate(0,0)"/>
<path d="" fill="#000000" transform="translate(0,0)"/>
<path d="" fill="#FFFFFF" transform="translate(0,0)"/>
<path d="" fill="#000000" transform="translate(0,0)"/>
<path d="" fill="#000000" transform="translate(0,0)"/>
<path d="" fill="#FFFFFF" transform="translate(0,0)"/>
<path d="" fill="#000000" transform="translate(0,0)"/>
<path d="" fill="#000000" transform="translate(0,0)"/>
<path d="" fill="#000000" transform="translate(0,0)"/>
<path d="" fill="#000000" transform="translate(0,0)"/>
<path d="" fill="#000000" transform="translate(0,0)"/>
<path d="" fill="#000000" transform="translate(0,0)"/>
<path d="" fill="#000000" transform="translate(0,0)"/>
<path d="" fill="#000000" transform="translate(0,0)"/>
<path d="" fill="#FFFFFF" transform="translate(0,0)"/>
<path d="" fill="#000000" transform="translate(0,0)"/>
<path d="" fill="#FFFFFF" transform="translate(0,0)"/>
<path d="" fill="#000000" transform="translate(0,0)"/>
<path d="" fill="#000000" transform="translate(0,0)"/>
<path d="" fill="#000000" transform="translate(0,0)"/>
<path d="" fill="#000000" transform="translate(0,0)"/>
<path d="" fill="#FFFFFF" transform="translate(0,0)"/>
<path d="" fill="#FFFFFF" transform="translate(0,0)"/>
<path d="" fill="#000000" transform="translate(0,0)"/>
<path d="" fill="#000000" transform="translate(0,0)"/>
<path d="" fill="#FFFFFF" transform="translate(0,0)"/>
<path d="" fill="#000000" transform="translate(0,0)"/>
<path d="" fill="#000000" transform="translate(0,0)"/>
<path d="" fill="#000000" transform="translate(0,0)"/>
<path d="" fill="#000000" transform="translate(0,0)"/>
<path d="" fill="#000000" transform="translate(0,0)"/>
<path d="" fill="#000000" transform="translate(0,0)"/>
<path d="" fill="#000000" transform="translate(0,0)"/>
<path d="" fill="#FFFFFF" transform="translate(0,0)"/>
<path d="" fill="#FFFFFF" transform="translate(0,0)"/>
<path d="" fill="#FFFFFF" transform="translate(0,0)"/>
<path d="" fill="#000000" transform="translate(0,0)"/>
<path d="" fill="#000000" transform="translate(0,0)"/>
<path d="" fill="#FFFFFF" transform="translate(0,0)"/>
<path d="" fill="#000000" transform="translate(0,0)"/>
<path d="" fill="#FFFFFF" transform="translate(0,0)"/>
<path d="" fill="#000000" transform="translate(0,0)"/>
<path d="" fill="#FFFFFF" transform="translate(0,0)"/>
<path d="" fill="#FFFFFF" transform="translate(0,0)"/>
<path d="" fill="#FFFFFF" transform="translate(0,0)"/>
<path d="" fill="#FFFFFF" transform="translate(0,0)"/>
<path d="" fill="#FFFFFF" transform="translate(0,0)"/>
<path d="" fill="#FFFFFF" transform="translate(0,0)"/>
<path d="" fill="#FFFFFF" transform="translate(0,0)"/>
<path d="" fill="#FFFFFF" transform="translate(0,0)"/>
<path d="" fill="#FFFFFF" transform="translate(0,0)"/>
<path d="" fill="#FFFFFF" transform="translate(0,0)"/>
<path d="" fill="#FFFFFF" transform="translate(0,0)"/>
<path d="" fill="#FFFFFF" transform="translate(0,0)"/>
</svg>
