<?xml version="1.0" encoding="UTF-8"?>
<svg version="1.1" xmlns="http://www.w3.org/2000/svg" width="200" height="200">
<path d="M0 0 C1.14146484 -0.01611328 2.28292969 -0.03222656 3.45898438 -0.04882812 C13.85583415 -0.05483439 21.30820003 2.19405262 29.0625 9.3125 C34.2680058 14.84074716 37.08926891 19.99993771 39.0625 27.3125 C42.3625 27.3125 45.6625 27.3125 49.0625 27.3125 C49.18496094 26.57644531 49.30742188 25.84039062 49.43359375 25.08203125 C51.27778615 16.96071192 56.7134718 10.47108541 63.0625 5.3125 C70.84700176 0.50278999 77.6135645 0.07447467 86.625 0 C87.76775391 -0.02900391 88.91050781 -0.05800781 90.08789062 -0.08789062 C101.09528294 -0.16970658 109.00588489 2.4078789 117.0234375 10.04296875 C127.74077939 21.97165771 129.91741778 36.66703562 129.24609375 52.16455078 C128.26806244 63.60699684 122.42719811 75.43868793 114.0625 83.3125 C102.80481319 91.97402638 89.65840303 91.27821866 76.0625 90.3125 C67.70884939 88.89327764 61.61257761 84.62922257 56.0625 78.3125 C52.70091325 73.5730955 50.13370808 68.73617512 48.0625 63.3125 C45.4225 63.3125 42.7825 63.3125 40.0625 63.3125 C39.53462891 64.47265625 39.53462891 64.47265625 38.99609375 65.65625 C33.76520683 76.69164591 27.82778449 85.01535987 16.11328125 89.421875 C10.60656677 90.90450838 4.9111025 90.68107788 -0.75 90.6875 C-1.87470703 90.71199219 -2.99941406 90.73648438 -4.15820312 90.76171875 C-14.35905127 90.79728243 -22.53157556 88.53771096 -30.0546875 81.42578125 C-35.79392982 74.98401757 -39.88184735 67.69323771 -41.9375 59.3125 C-42.12054688 58.5803125 -42.30359375 57.848125 -42.4921875 57.09375 C-44.96846573 41.62787192 -42.47650476 26.39022128 -33.59765625 13.34375 C-24.5628079 1.93130998 -13.81155513 -0.038862 0 0 Z M-22.9375 7.3125 C-23.54078125 7.725 -24.1440625 8.1375 -24.765625 8.5625 C-29.96506375 12.54120095 -32.99831453 17.53577236 -35.9375 23.3125 C-36.56205078 24.47652344 -36.56205078 24.47652344 -37.19921875 25.6640625 C-42.51095698 37.40579965 -41.58515079 53.70574578 -37.1953125 65.5859375 C-33.17941044 74.29121588 -27.2615611 82.04309483 -18.375 86.1875 C-10.70267205 88.69844369 -4.38930647 88.68948762 3.015625 85.4609375 C13.3659136 79.92578316 19.40393859 70.0692923 22.8125 59.1875 C26.44433593 44.87846334 23.88852546 31.26627054 16.9765625 18.5234375 C12.5043894 11.02113895 6.47901617 5.95435091 -1.9375 3.3125 C-9.75312525 2.24160904 -16.42317221 2.70058652 -22.9375 7.3125 Z M61.0234375 11.359375 C54.38569091 18.32549848 54.38569091 18.32549848 52.0625 27.3125 C62.19709277 28.32390155 62.19709277 28.32390155 71.3125 24.875 C72.22 24.029375 73.1275 23.18375 74.0625 22.3125 C78.91459133 20.69513622 82.69116656 20.69151882 87.375 22.8125 C88.261875 23.3075 89.14875 23.8025 90.0625 24.3125 C90.7225 24.3125 91.3825 24.3125 92.0625 24.3125 C92.0625 24.9725 92.0625 25.6325 92.0625 26.3125 C92.7225 26.3125 93.3825 26.3125 94.0625 26.3125 C94.72916667 27.97916667 95.39583333 29.64583333 96.0625 31.3125 C96.39894531 32.06789063 96.73539063 32.82328125 97.08203125 33.6015625 C99.80181869 41.12161225 99.83421077 49.58324831 97.13671875 57.08984375 C94.64609155 62.24317784 91.59449113 65.4046534 86.6875 68.3125 C82.40566262 69.49369652 79.30516136 69.6033706 75.0625 68.3125 C71.97002272 66.53718897 69.57513813 64.82513813 67.0625 62.3125 C64.31764407 62.16742305 61.67769457 62.12597577 58.9375 62.1875 C58.18339844 62.19652344 57.42929688 62.20554688 56.65234375 62.21484375 C54.78892746 62.2384313 52.92567407 62.27430281 51.0625 62.3125 C54.15562899 72.31968202 60.09111701 79.844405 69.0625 85.3125 C75.38510709 88.40355235 82.58767797 88.49099326 89.1953125 86.25 C101.2180403 80.70568442 106.60379303 72.13220279 111.3125 60.125 C114.97209474 46.40151973 113.29064015 31.29532679 106.375 18.8125 C101.11712091 10.93895884 94.23054553 4.99209739 84.9453125 2.81640625 C75.71803158 1.26788333 67.5536005 4.80419221 61.0234375 11.359375 Z M40.0625 30.3125 C40.22476074 31.04605713 40.38702148 31.77961426 40.55419922 32.53540039 C41.00863964 35.0182341 41.19143453 37.23067604 41.1953125 39.74609375 C41.19660156 40.56013672 41.19789062 41.37417969 41.19921875 42.21289062 C41.19535156 43.05013672 41.19148438 43.88738281 41.1875 44.75 C41.19136719 45.58337891 41.19523437 46.41675781 41.19921875 47.27539062 C41.19792969 48.09072266 41.19664063 48.90605469 41.1953125 49.74609375 C41.19418457 50.47884521 41.19305664 51.21159668 41.19189453 51.96655273 C41.03577215 54.79708099 40.56737953 57.52513383 40.0625 60.3125 C45.38271739 60.36203293 50.70279976 60.39828256 56.02319336 60.42236328 C57.83213643 60.43240487 59.64106333 60.4460408 61.44995117 60.46337891 C64.05391435 60.48770832 66.65766242 60.49900161 69.26171875 60.5078125 C70.46981453 60.52329636 70.46981453 60.52329636 71.70231628 60.53909302 C76.75785112 60.54009734 80.7334196 60.17267262 84.828125 56.90234375 C88.31119134 53.02514096 90.05034377 49.85179814 90.29296875 44.5859375 C89.75222901 39.25186071 87.63384465 35.62065474 83.55249023 32.22290039 C79.05586731 29.76147511 75.75643759 29.79883647 70.7265625 29.921875 C69.40753433 29.93036469 69.40753433 29.93036469 68.06185913 29.93902588 C65.26983818 29.96130916 62.47912908 30.01148937 59.6875 30.0625 C57.78777903 30.08257546 55.88803782 30.10082439 53.98828125 30.1171875 C49.34585334 30.16114744 44.70439863 30.23011818 40.0625 30.3125 Z " fill="#000000" transform="translate(56.9375,54.6875)"/>
<path d="M0 0 C5.7784451 3.20659927 9.04132849 8.1696514 11.28125 14.2734375 C13.45100571 22.25299963 12.96701908 31.0124186 8.87109375 38.2890625 C5.50488984 42.84446665 1.25949225 47.23398295 -4.5 48.14453125 C-10.78874883 48.69229497 -15.95379189 48.45092455 -21.5 45.14453125 C-26.8808805 40.23320872 -30.07295296 34.63564082 -30.96875 27.3125 C-31.04327884 17.81938938 -30.47045222 10.36771832 -23.65625 3.20703125 C-16.92084266 -2.22150601 -8.08121368 -2.76529031 0 0 Z M-23.05859375 6.6875 C-28.22166187 13.38263581 -29.02170327 20.27763744 -28.03515625 28.46484375 C-26.60014684 35.65036534 -23.37536227 39.92959744 -17.5 44.14453125 C-14.38111322 45.70397464 -11.9545855 45.427694 -8.5 45.14453125 C-2.28656673 42.57345541 0.53383967 39.11362248 3.5 33.14453125 C5.72260115 26.47672779 5.40126013 18.4102322 2.546875 11.9609375 C0.0650264 7.65474497 -2.73610698 4.11047267 -7.125 1.70703125 C-13.34177272 0.23463771 -18.59299259 2.26666677 -23.05859375 6.6875 Z " fill="#000000" transform="translate(60.5,76.85546875)"/>
</svg>
