<?xml version="1.0" encoding="UTF-8"?>
<svg version="1.1" xmlns="http://www.w3.org/2000/svg" width="200" height="200">
<path d="M0 0 C1.02770508 0.00483398 1.02770508 0.00483398 2.07617188 0.00976562 C2.75744141 -0.00634766 3.43871094 -0.02246094 4.140625 -0.0390625 C9.0695865 -0.04389008 9.0695865 -0.04389008 11.33935547 1.41650391 C13.30754146 4.30332463 12.9754259 6.71869769 12.93164062 10.17773438 C12.92739578 10.83937088 12.92315094 11.50100739 12.91877747 12.18269348 C12.90200881 14.29213473 12.86436287 16.40061408 12.82617188 18.50976562 C12.81112256 19.94139243 12.79743458 21.37303425 12.78515625 22.8046875 C12.75211217 26.3108585 12.70034355 29.81646816 12.63867188 33.32226562 C15.60867187 33.32226562 18.57867187 33.32226562 21.63867188 33.32226562 C21.61546875 32.40703125 21.59226563 31.49179687 21.56835938 30.54882812 C21.5503125 29.3603125 21.53226563 28.17179687 21.51367188 26.94726562 C21.49046875 25.76390625 21.46726563 24.58054687 21.44335938 23.36132812 C21.63867188 20.32226562 21.63867188 20.32226562 23.63867188 18.32226562 C25.48632812 18.06347656 25.48632812 18.06347656 27.70117188 18.05664062 C28.89613281 18.05277344 28.89613281 18.05277344 30.11523438 18.04882812 C30.94796875 18.0565625 31.78070313 18.06429687 32.63867188 18.07226562 C33.47140625 18.06453125 34.30414063 18.05679688 35.16210938 18.04882812 C35.95875 18.05140625 36.75539063 18.05398437 37.57617188 18.05664062 C38.30707031 18.05889648 39.03796875 18.06115234 39.79101562 18.06347656 C41.63867187 18.32226562 41.63867187 18.32226562 43.63867188 20.32226562 C43.63867188 24.61226562 43.63867188 28.90226562 43.63867188 33.32226562 C52.87867187 33.32226562 62.11867188 33.32226562 71.63867188 33.32226562 C71.63867188 29.03226563 71.63867188 24.74226563 71.63867188 20.32226562 C74.0043541 17.9565834 74.49099413 18.06654858 77.70117188 18.05664062 C78.89613281 18.05277344 78.89613281 18.05277344 80.11523438 18.04882812 C80.94796875 18.0565625 81.78070313 18.06429687 82.63867188 18.07226562 C83.47140625 18.06453125 84.30414063 18.05679688 85.16210938 18.04882812 C85.95875 18.05140625 86.75539063 18.05398437 87.57617188 18.05664062 C88.30707031 18.05889648 89.03796875 18.06115234 89.79101562 18.06347656 C91.63867188 18.32226562 91.63867188 18.32226562 93.63867188 20.32226562 C93.83398438 23.36132812 93.83398438 23.36132812 93.76367188 26.94726562 C93.745625 28.13578125 93.72757813 29.32429688 93.70898438 30.54882812 C93.68578125 31.4640625 93.66257813 32.37929688 93.63867188 33.32226562 C96.60867187 33.32226562 99.57867187 33.32226562 102.63867188 33.32226562 C102.6151062 31.98264771 102.6151062 31.98264771 102.59106445 30.6159668 C102.53991749 27.30047806 102.50231376 23.98540887 102.47387695 20.66967773 C102.45879599 19.23504011 102.43832807 17.80044854 102.41235352 16.3659668 C102.37593751 14.30310704 102.35893944 12.24085705 102.34570312 10.17773438 C102.32213745 8.31604614 102.32213745 8.31604614 102.2980957 6.41674805 C102.63867188 3.32226563 102.63867188 3.32226563 103.93798828 1.41650391 C106.79164486 -0.41956971 109.92454207 -0.06773271 113.20117188 0.00976562 C113.88630859 0.00654297 114.57144531 0.00332031 115.27734375 0 C120.37139602 0.05498977 120.37139602 0.05498977 122.63867188 2.32226562 C122.90859094 5.01065947 122.72604544 7.61368499 122.63867188 10.32226562 C124.01152344 10.28746094 124.01152344 10.28746094 125.41210938 10.25195312 C126.600625 10.23390625 127.78914062 10.21585938 129.01367188 10.19726562 C130.19703125 10.1740625 131.38039062 10.15085937 132.59960938 10.12695312 C135.63867188 10.32226562 135.63867188 10.32226562 137.63867188 12.32226562 C137.86572266 14.47705078 137.86572266 14.47705078 137.83398438 17.11132812 C137.82431641 18.52285156 137.82431641 18.52285156 137.81445312 19.96289062 C137.78931641 21.44015625 137.78931641 21.44015625 137.76367188 22.94726562 C137.75464844 23.93984375 137.745625 24.93242188 137.73632812 25.95507812 C137.71271304 28.41104697 137.67977987 30.86653731 137.63867188 33.32226562 C138.42113281 33.31066406 139.20359375 33.2990625 140.00976562 33.28710938 C141.02167969 33.27808594 142.03359375 33.2690625 143.07617188 33.25976562 C144.08550781 33.24816406 145.09484375 33.2365625 146.13476562 33.22460938 C148.63867188 33.32226562 148.63867188 33.32226562 149.63867188 34.32226562 C149.73704397 35.65270187 149.7694578 36.98819907 149.77148438 38.32226562 C149.77277344 39.12664062 149.7740625 39.93101563 149.77539062 40.75976562 C149.77152344 41.60539062 149.76765625 42.45101562 149.76367188 43.32226562 C149.76753906 44.16789062 149.77140625 45.01351562 149.77539062 45.88476562 C149.77345703 47.09132813 149.77345703 47.09132813 149.77148438 48.32226562 C149.77035645 49.06476563 149.76922852 49.80726562 149.76806641 50.57226562 C149.63867188 52.32226562 149.63867188 52.32226562 148.63867188 53.32226562 C146.78579686 53.39453064 144.9303331 53.40607782 143.07617188 53.38476562 C142.06425781 53.37574219 141.05234375 53.36671875 140.00976562 53.35742188 C139.22730469 53.34582031 138.44484375 53.33421875 137.63867188 53.32226562 C137.64914551 53.91241455 137.65961914 54.50256348 137.67041016 55.1105957 C137.71199231 57.78527566 137.73800478 60.45988759 137.76367188 63.13476562 C137.78042969 64.06353516 137.7971875 64.99230469 137.81445312 65.94921875 C137.82089844 66.84189453 137.82734375 67.73457031 137.83398438 68.65429688 C137.84445801 69.47647705 137.85493164 70.29865723 137.86572266 71.14575195 C137.63867188 73.32226562 137.63867188 73.32226562 135.63867188 76.32226562 C132.59960938 76.61523438 132.59960938 76.61523438 129.01367188 76.50976562 C127.82515625 76.48269531 126.63664063 76.455625 125.41210938 76.42773438 C124.496875 76.39292969 123.58164063 76.358125 122.63867188 76.32226562 C122.66960937 78.27132812 122.66960937 78.27132812 122.70117188 80.25976562 C122.72266642 81.61392196 122.71015386 82.96982645 122.63867188 84.32226562 C120.53735802 86.42357948 116.09720865 85.50741304 113.20117188 85.50976562 C112.41162109 85.52201172 111.62207031 85.53425781 110.80859375 85.546875 C108.75059753 85.55213842 106.69305178 85.44432848 104.63867188 85.32226562 C102.63867188 83.32226562 102.63867188 83.32226562 102.41162109 80.34130859 C102.42733154 78.47176514 102.42733154 78.47176514 102.44335938 76.56445312 C102.44618927 75.90140167 102.44901917 75.23835022 102.45193481 74.5552063 C102.46313752 72.43570979 102.48824137 70.31663458 102.51367188 68.19726562 C102.5237016 66.76107381 102.53282746 65.32487537 102.54101562 63.88867188 C102.56307687 60.36639934 102.59760694 56.84437359 102.63867188 53.32226562 C99.66867188 53.32226562 96.69867188 53.32226562 93.63867188 53.32226562 C93.63867188 82.36226563 93.63867188 111.40226563 93.63867188 141.32226562 C98.91867188 141.32226562 104.19867188 141.32226562 109.63867188 141.32226562 C110.29867187 142.64226562 110.95867187 143.96226562 111.63867188 145.32226562 C110.05280772 147.21524567 109.15021568 148.22341919 106.68493652 148.69978905 C105.93941528 148.70092012 105.19389404 148.7020512 104.42578125 148.70321655 C103.13873291 148.71590576 103.13873291 148.71590576 101.82568359 148.72885132 C100.41826904 148.71974228 100.41826904 148.71974228 98.98242188 148.71044922 C97.99193848 148.71570618 97.00145508 148.72096313 95.98095703 148.72637939 C92.70003589 148.73960585 89.41959813 148.73083177 86.13867188 148.72070312 C83.8632803 148.72272309 81.58788935 148.72563389 79.3125 148.72940063 C74.540953 148.73382758 69.76957433 148.72738088 64.99804688 148.71337891 C58.87425335 148.69628698 52.75085424 148.70612616 46.6270752 148.7240963 C41.92770401 148.73492403 37.22842671 148.73149241 32.52905273 148.72371292 C30.27075148 148.72170812 28.01244177 148.72417994 25.75415039 148.73115158 C22.60084369 148.7387493 19.4481805 148.72718504 16.29492188 148.71044922 C15.35664551 148.71652191 14.41836914 148.7225946 13.45166016 148.72885132 C12.59362793 148.72039185 11.7355957 148.71193237 10.8515625 148.70321655 C9.73328064 148.70151994 9.73328064 148.70151994 8.59240723 148.69978905 C6.03775609 148.2061497 5.097081 147.46628217 3.63867188 145.32226562 C3.96867187 144.00226563 4.29867187 142.68226563 4.63867188 141.32226562 C10.24867187 141.32226562 15.85867187 141.32226562 21.63867188 141.32226562 C21.63867188 112.28226562 21.63867188 83.24226562 21.63867188 53.32226562 C18.66867188 53.32226562 15.69867188 53.32226562 12.63867188 53.32226562 C12.65438232 54.66973877 12.65438232 54.66973877 12.67041016 56.04443359 C12.70446658 59.3729101 12.72955806 62.70120185 12.74853516 66.02978516 C12.7586015 67.4712211 12.77225568 68.91263658 12.78955078 70.35400391 C12.81377199 72.42420496 12.82514829 74.49413639 12.83398438 76.56445312 C12.84969482 78.43399658 12.84969482 78.43399658 12.86572266 80.34130859 C12.63867188 83.32226562 12.63867188 83.32226562 10.63867188 85.32226562 C7.74735011 85.49405614 4.96425123 85.55456033 2.07617188 85.50976562 C1.28275391 85.50912109 0.48933594 85.50847656 -0.328125 85.5078125 C-6.22107291 85.46252084 -6.22107291 85.46252084 -7.36132812 84.32226562 C-7.50247974 81.65167711 -7.4037992 78.99794325 -7.36132812 76.32226562 C-8.73417969 76.37447266 -8.73417969 76.37447266 -10.13476562 76.42773438 C-11.32328125 76.45480469 -12.51179688 76.481875 -13.73632812 76.50976562 C-14.9196875 76.54457031 -16.10304688 76.579375 -17.32226562 76.61523438 C-18.82660156 76.47021484 -18.82660156 76.47021484 -20.36132812 76.32226562 C-22.49737121 73.118201 -22.6034172 72.32625815 -22.55664062 68.65429688 C-22.54697266 67.3152832 -22.54697266 67.3152832 -22.53710938 65.94921875 C-22.52035156 65.02044922 -22.50359375 64.09167969 -22.48632812 63.13476562 C-22.47730469 62.19439453 -22.46828125 61.25402344 -22.45898438 60.28515625 C-22.43541869 57.96393595 -22.40251929 55.64322919 -22.36132812 53.32226562 C-23.14378906 53.33386719 -23.92625 53.34546875 -24.73242188 53.35742188 C-25.74433594 53.36644531 -26.75625 53.37546875 -27.79882812 53.38476562 C-28.80816406 53.39636719 -29.8175 53.40796875 -30.85742188 53.41992188 C-33.36132812 53.32226562 -33.36132812 53.32226562 -34.36132812 52.32226562 C-34.45970022 50.99182938 -34.49211405 49.65633218 -34.49414062 48.32226562 C-34.49542969 47.51789063 -34.49671875 46.71351562 -34.49804688 45.88476562 C-34.49417969 45.03914063 -34.4903125 44.19351563 -34.48632812 43.32226562 C-34.49019531 42.47664063 -34.4940625 41.63101563 -34.49804688 40.75976562 C-34.49675781 39.95539063 -34.49546875 39.15101562 -34.49414062 38.32226562 C-34.4930127 37.57976563 -34.49188477 36.83726563 -34.49072266 36.07226562 C-34.36132812 34.32226562 -34.36132812 34.32226562 -33.36132812 33.32226562 C-31.50845311 33.25000061 -29.65298935 33.23845343 -27.79882812 33.25976562 C-26.78691406 33.26878906 -25.775 33.2778125 -24.73242188 33.28710938 C-23.55873047 33.30451172 -23.55873047 33.30451172 -22.36132812 33.32226562 C-22.37180176 32.69658691 -22.38227539 32.0709082 -22.39306641 31.42626953 C-22.43456004 28.59997552 -22.46063285 25.77374552 -22.48632812 22.94726562 C-22.51146484 21.47 -22.51146484 21.47 -22.53710938 19.96289062 C-22.54355469 19.021875 -22.55 18.08085938 -22.55664062 17.11132812 C-22.56711426 16.2420166 -22.57758789 15.37270508 -22.58837891 14.47705078 C-22.36132812 12.32226562 -22.36132812 12.32226562 -20.36132812 10.32226562 C-17.32226563 10.12695312 -17.32226563 10.12695312 -13.73632812 10.19726562 C-11.95355469 10.22433594 -11.95355469 10.22433594 -10.13476562 10.25195312 C-9.21953125 10.27515625 -8.30429687 10.29835938 -7.36132812 10.32226562 C-7.40257813 9.04351562 -7.44382812 7.76476563 -7.48632812 6.44726562 C-7.55664062 4.26757813 -7.55664062 4.26757813 -7.36132812 2.32226562 C-4.88747141 -0.15159109 -3.38628585 0.03655461 0 0 Z M-0.36132812 7.32226562 C-0.36132812 30.75226562 -0.36132812 54.18226562 -0.36132812 78.32226562 C1.28867187 78.32226562 2.93867187 78.32226562 4.63867188 78.32226562 C4.63867188 54.89226562 4.63867188 31.46226563 4.63867188 7.32226562 C2.98867188 7.32226562 1.33867188 7.32226562 -0.36132812 7.32226562 Z M110.63867188 7.32226562 C110.63867188 30.75226562 110.63867188 54.18226562 110.63867188 78.32226562 C112.28867188 78.32226562 113.93867188 78.32226562 115.63867188 78.32226562 C115.63867188 54.89226562 115.63867188 31.46226563 115.63867188 7.32226562 C113.98867187 7.32226562 112.33867187 7.32226562 110.63867188 7.32226562 Z M-14.36132812 17.32226562 C-14.36132812 34.48226562 -14.36132812 51.64226562 -14.36132812 69.32226562 C-12.05132813 69.32226562 -9.74132812 69.32226562 -7.36132812 69.32226562 C-7.36132812 52.16226563 -7.36132812 35.00226562 -7.36132812 17.32226562 C-9.67132813 17.32226562 -11.98132813 17.32226562 -14.36132812 17.32226562 Z M122.63867188 17.32226562 C122.63867188 34.48226562 122.63867188 51.64226562 122.63867188 69.32226562 C124.94867188 69.32226562 127.25867188 69.32226562 129.63867188 69.32226562 C129.63867188 52.16226563 129.63867188 35.00226562 129.63867188 17.32226562 C127.32867187 17.32226562 125.01867187 17.32226562 122.63867188 17.32226562 Z M28.63867188 25.32226562 C28.63867188 63.60226563 28.63867188 101.88226563 28.63867188 141.32226562 C31.27867188 141.32226562 33.91867188 141.32226562 36.63867188 141.32226562 C36.63867188 103.04226562 36.63867188 64.76226562 36.63867188 25.32226562 C33.99867187 25.32226562 31.35867187 25.32226562 28.63867188 25.32226562 Z M78.63867188 25.32226562 C78.63867188 63.60226563 78.63867188 101.88226563 78.63867188 141.32226562 C81.27867188 141.32226562 83.91867188 141.32226562 86.63867188 141.32226562 C86.63867188 103.04226562 86.63867188 64.76226562 86.63867188 25.32226562 C83.99867187 25.32226562 81.35867187 25.32226562 78.63867188 25.32226562 Z M-27.36132812 40.32226562 C-27.36132812 42.30226562 -27.36132812 44.28226563 -27.36132812 46.32226562 C-25.71132813 46.32226562 -24.06132812 46.32226562 -22.36132812 46.32226562 C-22.36132812 44.34226562 -22.36132812 42.36226562 -22.36132812 40.32226562 C-24.01132812 40.32226562 -25.66132813 40.32226562 -27.36132812 40.32226562 Z M12.63867188 40.32226562 C12.63867188 42.30226562 12.63867188 44.28226563 12.63867188 46.32226562 C15.60867187 46.32226562 18.57867187 46.32226562 21.63867188 46.32226562 C21.63867188 44.34226562 21.63867188 42.36226562 21.63867188 40.32226562 C18.66867188 40.32226562 15.69867188 40.32226562 12.63867188 40.32226562 Z M43.63867188 40.32226562 C43.63867188 42.30226562 43.63867188 44.28226563 43.63867188 46.32226562 C52.87867187 46.32226562 62.11867188 46.32226562 71.63867188 46.32226562 C71.63867188 44.34226562 71.63867188 42.36226562 71.63867188 40.32226562 C62.39867187 40.32226562 53.15867187 40.32226562 43.63867188 40.32226562 Z M93.63867188 40.32226562 C93.63867188 42.30226562 93.63867188 44.28226563 93.63867188 46.32226562 C96.60867187 46.32226562 99.57867187 46.32226562 102.63867188 46.32226562 C102.63867188 44.34226562 102.63867188 42.36226562 102.63867188 40.32226562 C99.66867188 40.32226562 96.69867188 40.32226562 93.63867188 40.32226562 Z M137.63867188 40.32226562 C137.63867188 42.30226562 137.63867188 44.28226563 137.63867188 46.32226562 C139.28867188 46.32226562 140.93867188 46.32226562 142.63867188 46.32226562 C142.63867188 44.34226562 142.63867188 42.36226562 142.63867188 40.32226562 C140.98867187 40.32226562 139.33867187 40.32226562 137.63867188 40.32226562 Z M43.63867188 53.32226562 C43.63867188 82.36226563 43.63867188 111.40226563 43.63867188 141.32226562 C52.87867187 141.32226562 62.11867188 141.32226562 71.63867188 141.32226562 C71.63867188 112.28226562 71.63867188 83.24226562 71.63867188 53.32226562 C62.39867187 53.32226562 53.15867187 53.32226562 43.63867188 53.32226562 Z " fill="#000000" transform="translate(42.361328125,25.677734375)"/>
</svg>
