<?xml version="1.0" encoding="UTF-8"?>
<svg version="1.1" xmlns="http://www.w3.org/2000/svg" width="200" height="200">
<path d="M0 0 C0.78955078 -0.01224609 1.57910156 -0.02449219 2.39257812 -0.03710938 C4.45057435 -0.04237279 6.50812009 0.06543715 8.5625 0.1875 C10.5625 2.1875 10.5625 2.1875 10.5625 12.1875 C40.9225 12.1875 71.2825 12.1875 102.5625 12.1875 C102.5625 8.8875 102.5625 5.5875 102.5625 2.1875 C104.5625 0.1875 104.5625 0.1875 108.44140625 -0.04296875 C110.00266476 -0.03897576 111.56392414 -0.02421261 113.125 0 C114.31512695 0.0009668 114.31512695 0.0009668 115.52929688 0.00195312 C121.42224478 0.04724478 121.42224478 0.04724478 122.5625 1.1875 C122.65752416 3.68242388 122.68807566 6.14956014 122.67602539 8.64477539 C122.67617142 9.42520706 122.67631744 10.20563873 122.6764679 11.00971985 C122.67576858 13.6015598 122.66797536 16.19332878 122.66015625 18.78515625 C122.65829213 20.5773464 122.6568682 22.36953706 122.65586853 24.16172791 C122.65204284 28.88820797 122.64221212 33.61465752 122.63116455 38.34112549 C122.62095153 43.1603555 122.61637115 47.97959042 122.61132812 52.79882812 C122.60058989 62.26173219 122.58351286 71.72461356 122.5625 81.1875 C124.2125 81.1875 125.8625 81.1875 127.5625 81.1875 C127.55202637 80.53676514 127.54155273 79.88603027 127.53076172 79.21557617 C127.48920165 76.2687567 127.46317392 73.32199889 127.4375 70.375 C127.41236328 68.83875977 127.41236328 68.83875977 127.38671875 67.27148438 C127.38027344 66.28857422 127.37382812 65.30566406 127.3671875 64.29296875 C127.35671387 63.38699951 127.34624023 62.48103027 127.33544922 61.54760742 C127.5625 59.1875 127.5625 59.1875 129.5625 56.1875 C131.875 55.82421875 131.875 55.82421875 134.5625 55.875 C135.449375 55.87886719 136.33625 55.88273437 137.25 55.88671875 C139.5625 56.1875 139.5625 56.1875 141.5625 58.1875 C141.78955078 60.52587891 141.78955078 60.52587891 141.7578125 63.4140625 C141.74814453 64.9609375 141.74814453 64.9609375 141.73828125 66.5390625 C141.71314453 68.15941406 141.71314453 68.15941406 141.6875 69.8125 C141.67847656 70.90046875 141.66945312 71.9884375 141.66015625 73.109375 C141.63653409 75.80230152 141.60359556 78.49479255 141.5625 81.1875 C142.34496094 81.17589844 143.12742188 81.16429688 143.93359375 81.15234375 C144.94550781 81.14332031 145.95742187 81.13429688 147 81.125 C148.00933594 81.11339844 149.01867187 81.10179688 150.05859375 81.08984375 C152.5625 81.1875 152.5625 81.1875 153.5625 82.1875 C153.6875 84.6875 153.6875 84.6875 153.5625 87.1875 C152.5625 88.1875 152.5625 88.1875 150.05859375 88.28515625 C149.04925781 88.27355469 148.03992188 88.26195313 147 88.25 C145.48212891 88.23646484 145.48212891 88.23646484 143.93359375 88.22265625 C143.15113281 88.21105469 142.36867187 88.19945313 141.5625 88.1875 C141.56773682 88.90929443 141.57297363 89.63108887 141.57836914 90.37475586 C141.59907358 93.62482849 141.61213918 96.87488728 141.625 100.125 C141.63337891 101.26130859 141.64175781 102.39761719 141.65039062 103.56835938 C141.65361328 104.64794922 141.65683594 105.72753906 141.66015625 106.83984375 C141.66539307 107.84007568 141.67062988 108.84030762 141.67602539 109.87084961 C141.5625 112.1875 141.5625 112.1875 140.5625 113.1875 C138.54285801 113.25994053 136.52082876 113.27127188 134.5 113.25 C133.39527344 113.24097656 132.29054687 113.23195313 131.15234375 113.22265625 C130.29769531 113.21105469 129.44304687 113.19945313 128.5625 113.1875 C127.28388385 110.63026771 127.44913391 108.82012898 127.46484375 105.9609375 C127.46806641 104.9296875 127.47128906 103.8984375 127.47460938 102.8359375 C127.48298828 101.75570312 127.49136719 100.67546875 127.5 99.5625 C127.50451172 98.47453125 127.50902344 97.3865625 127.51367188 96.265625 C127.52548224 93.57286211 127.54195222 90.88020812 127.5625 88.1875 C125.9125 88.1875 124.2625 88.1875 122.5625 88.1875 C122.5625 112.6075 122.5625 137.0275 122.5625 162.1875 C124.5425 162.5175 126.5225 162.8475 128.5625 163.1875 C128.58933987 166.16672593 128.60926037 169.14571295 128.625 172.125 C128.63337891 172.97513672 128.64175781 173.82527344 128.65039062 174.70117188 C128.65361328 175.51005859 128.65683594 176.31894531 128.66015625 177.15234375 C128.66539307 177.9012085 128.67062988 178.65007324 128.67602539 179.42163086 C128.5625 181.1875 128.5625 181.1875 127.5625 182.1875 C125.34394736 182.27533542 123.12261504 182.29444609 120.90234375 182.28515625 C119.90564415 182.28303383 119.90564415 182.28303383 118.8888092 182.28086853 C116.75916101 182.27525518 114.62961661 182.26270054 112.5 182.25 C111.05924631 182.24498671 109.61849097 182.24042351 108.17773438 182.23632812 C104.63928898 182.22528145 101.10090461 182.20800792 97.5625 182.1875 C95.98214226 179.02678451 96.33674654 175.65475496 96.3125 172.1875 C96.291875 171.45015625 96.27125 170.7128125 96.25 169.953125 C96.234375 167.8125 96.234375 167.8125 96.5625 164.1875 C99.5625 162.1875 99.5625 162.1875 102.5625 162.1875 C102.5625 150.3075 102.5625 138.4275 102.5625 126.1875 C100.9125 125.8575 99.2625 125.5275 97.5625 125.1875 C97.18031233 123.53135343 96.84854898 121.86292976 96.5625 120.1875 C96.8925 119.8575 97.2225 119.5275 97.5625 119.1875 C99.2125 119.1875 100.8625 119.1875 102.5625 119.1875 C102.5625 115.2275 102.5625 111.2675 102.5625 107.1875 C100.9125 107.1875 99.2625 107.1875 97.5625 107.1875 C96.4375 102.4375 96.4375 102.4375 97.5625 100.1875 C99.2125 100.1875 100.8625 100.1875 102.5625 100.1875 C102.5625 96.2275 102.5625 92.2675 102.5625 88.1875 C72.2025 88.1875 41.8425 88.1875 10.5625 88.1875 C10.5625 92.1475 10.5625 96.1075 10.5625 100.1875 C12.2125 100.1875 13.8625 100.1875 15.5625 100.1875 C16.1875 102.5625 16.1875 102.5625 16.5625 105.1875 C15.9025 105.8475 15.2425 106.5075 14.5625 107.1875 C13.2425 107.1875 11.9225 107.1875 10.5625 107.1875 C10.5625 111.1475 10.5625 115.1075 10.5625 119.1875 C12.2125 119.1875 13.8625 119.1875 15.5625 119.1875 C16.1875 121.5625 16.1875 121.5625 16.5625 124.1875 C15.9025 124.8475 15.2425 125.5075 14.5625 126.1875 C13.2425 126.1875 11.9225 126.1875 10.5625 126.1875 C10.5625 138.0675 10.5625 149.9475 10.5625 162.1875 C12.2125 162.5175 13.8625 162.8475 15.5625 163.1875 C17.60516429 165.23016429 16.74757944 169.32441434 16.75 172.125 C16.76224609 172.86685547 16.77449219 173.60871094 16.78710938 174.37304688 C16.79238478 176.31263629 16.68438902 178.2517371 16.5625 180.1875 C14.5625 182.1875 14.5625 182.1875 11.68920898 182.43041992 C9.89205444 182.42425659 9.89205444 182.42425659 8.05859375 182.41796875 C6.76115234 182.41603516 5.46371094 182.41410156 4.12695312 182.41210938 C3.11193726 182.40280396 3.11193726 182.40280396 2.07641602 182.39331055 C0.00459529 182.37504052 -2.06677897 182.37280095 -4.13867188 182.37304688 C-14.29741743 182.32758257 -14.29741743 182.32758257 -15.4375 181.1875 C-15.52381874 179.84482587 -15.54456473 178.49775678 -15.53515625 177.15234375 C-15.53193359 176.34345703 -15.52871094 175.53457031 -15.52539062 174.70117188 C-15.51701172 173.85103516 -15.50863281 173.00089844 -15.5 172.125 C-15.49548828 171.27099609 -15.49097656 170.41699219 -15.48632812 169.53710938 C-15.47450373 167.42054337 -15.45656769 165.30401315 -15.4375 163.1875 C-13.4575 162.8575 -11.4775 162.5275 -9.4375 162.1875 C-9.4375 137.7675 -9.4375 113.3475 -9.4375 88.1875 C-11.0875 88.1875 -12.7375 88.1875 -14.4375 88.1875 C-14.42964478 89.21689697 -14.42964478 89.21689697 -14.42163086 90.26708984 C-14.40089044 93.36555064 -14.38784924 96.46399686 -14.375 99.5625 C-14.36662109 100.64273438 -14.35824219 101.72296875 -14.34960938 102.8359375 C-14.34477539 104.3828125 -14.34477539 104.3828125 -14.33984375 105.9609375 C-14.33198853 107.39058838 -14.33198853 107.39058838 -14.32397461 108.84912109 C-14.4375 111.1875 -14.4375 111.1875 -15.4375 113.1875 C-17.41659398 113.21436553 -19.39578971 113.23383375 -21.375 113.25 C-22.47714844 113.26160156 -23.57929688 113.27320312 -24.71484375 113.28515625 C-27.4375 113.1875 -27.4375 113.1875 -28.4375 112.1875 C-28.52476223 110.40678754 -28.54449041 108.6226686 -28.53515625 106.83984375 C-28.53193359 105.76025391 -28.52871094 104.68066406 -28.52539062 103.56835938 C-28.51701172 102.43205078 -28.50863281 101.29574219 -28.5 100.125 C-28.49548828 98.98482422 -28.49097656 97.84464844 -28.48632812 96.66992188 C-28.47449747 93.84239649 -28.4580141 91.0149736 -28.4375 88.1875 C-29.21996094 88.19910156 -30.00242187 88.21070312 -30.80859375 88.22265625 C-31.82050781 88.23167969 -32.83242188 88.24070312 -33.875 88.25 C-34.88433594 88.26160156 -35.89367188 88.27320312 -36.93359375 88.28515625 C-39.4375 88.1875 -39.4375 88.1875 -40.4375 87.1875 C-40.5625 84.6875 -40.5625 84.6875 -40.4375 82.1875 C-39.4375 81.1875 -39.4375 81.1875 -36.93359375 81.08984375 C-35.92425781 81.10144531 -34.91492188 81.11304687 -33.875 81.125 C-32.35712891 81.13853516 -32.35712891 81.13853516 -30.80859375 81.15234375 C-30.02613281 81.16394531 -29.24367188 81.17554687 -28.4375 81.1875 C-28.44797363 80.50123535 -28.45844727 79.8149707 -28.46923828 79.10791016 C-28.51071874 76.00947711 -28.53680069 72.91110239 -28.5625 69.8125 C-28.57925781 68.73226562 -28.59601562 67.65203125 -28.61328125 66.5390625 C-28.61972656 65.5078125 -28.62617188 64.4765625 -28.6328125 63.4140625 C-28.64328613 62.46096191 -28.65375977 61.50786133 -28.66455078 60.52587891 C-28.4375 58.1875 -28.4375 58.1875 -26.4375 56.1875 C-24.125 55.88671875 -24.125 55.88671875 -21.4375 55.875 C-20.550625 55.85824219 -19.66375 55.84148437 -18.75 55.82421875 C-17.986875 55.94410156 -17.22375 56.06398437 -16.4375 56.1875 C-14.23557776 59.49038336 -14.19790032 60.46212727 -14.2421875 64.29296875 C-14.24863281 65.27587891 -14.25507813 66.25878906 -14.26171875 67.27148438 C-14.27847656 68.29564453 -14.29523437 69.31980469 -14.3125 70.375 C-14.32152344 71.41076172 -14.33054687 72.44652344 -14.33984375 73.51367188 C-14.3634214 76.07184685 -14.3963297 78.62955748 -14.4375 81.1875 C-12.7875 81.1875 -11.1375 81.1875 -9.4375 81.1875 C-9.43972061 80.18747452 -9.44194122 79.18744904 -9.44422913 78.15711975 C-9.46446068 68.75381661 -9.4794722 59.35051785 -9.48931217 49.94719791 C-9.49454097 45.11233173 -9.50163854 40.27748306 -9.51293945 35.44262695 C-9.52376847 30.7807288 -9.52977686 26.11884754 -9.53237724 21.45693779 C-9.53423147 19.67425712 -9.53785203 17.89157741 -9.54323006 16.10890388 C-9.55044069 13.6208404 -9.55149093 11.13284757 -9.55102539 8.64477539 C-9.55462067 7.90031158 -9.55821594 7.15584778 -9.56192017 6.38882446 C-9.54637384 -1.23929782 -6.79690348 0.00552145 0 0 Z M-2.4375 7.1875 C-2.4375 31.6075 -2.4375 56.0275 -2.4375 81.1875 C-0.7875 81.1875 0.8625 81.1875 2.5625 81.1875 C2.5625 56.7675 2.5625 32.3475 2.5625 7.1875 C0.9125 7.1875 -0.7375 7.1875 -2.4375 7.1875 Z M110.5625 7.1875 C110.5625 31.6075 110.5625 56.0275 110.5625 81.1875 C112.2125 81.1875 113.8625 81.1875 115.5625 81.1875 C115.5625 56.7675 115.5625 32.3475 115.5625 7.1875 C113.9125 7.1875 112.2625 7.1875 110.5625 7.1875 Z M10.5625 26.1875 C10.5625 32.1275 10.5625 38.0675 10.5625 44.1875 C12.2125 44.5175 13.8625 44.8475 15.5625 45.1875 C15.2325 46.8375 14.9025 48.4875 14.5625 50.1875 C13.2425 50.5175 11.9225 50.8475 10.5625 51.1875 C10.5625 54.8175 10.5625 58.4475 10.5625 62.1875 C12.2125 62.8475 13.8625 63.5075 15.5625 64.1875 C15.5625 65.5075 15.5625 66.8275 15.5625 68.1875 C13.9125 68.8475 12.2625 69.5075 10.5625 70.1875 C10.5625 73.8175 10.5625 77.4475 10.5625 81.1875 C40.9225 81.1875 71.2825 81.1875 102.5625 81.1875 C102.5625 77.5575 102.5625 73.9275 102.5625 70.1875 C100.9125 69.5275 99.2625 68.8675 97.5625 68.1875 C97.5625 66.8675 97.5625 65.5475 97.5625 64.1875 C99.2125 63.5275 100.8625 62.8675 102.5625 62.1875 C102.5625 58.5575 102.5625 54.9275 102.5625 51.1875 C100.9125 50.5275 99.2625 49.8675 97.5625 49.1875 C97.5625 47.8675 97.5625 46.5475 97.5625 45.1875 C99.2125 44.8575 100.8625 44.5275 102.5625 44.1875 C102.5625 38.2475 102.5625 32.3075 102.5625 26.1875 C72.2025 26.1875 41.8425 26.1875 10.5625 26.1875 Z M-2.4375 88.1875 C-2.4375 112.6075 -2.4375 137.0275 -2.4375 162.1875 C-0.7875 162.1875 0.8625 162.1875 2.5625 162.1875 C2.5625 137.7675 2.5625 113.3475 2.5625 88.1875 C0.9125 88.1875 -0.7375 88.1875 -2.4375 88.1875 Z M110.5625 88.1875 C110.5625 112.6075 110.5625 137.0275 110.5625 162.1875 C112.2125 162.1875 113.8625 162.1875 115.5625 162.1875 C115.5625 137.7675 115.5625 113.3475 115.5625 88.1875 C113.9125 88.1875 112.2625 88.1875 110.5625 88.1875 Z M-8.4375 170.1875 C-8.4375 171.8375 -8.4375 173.4875 -8.4375 175.1875 C-2.4975 175.1875 3.4425 175.1875 9.5625 175.1875 C9.5625 173.5375 9.5625 171.8875 9.5625 170.1875 C3.6225 170.1875 -2.3175 170.1875 -8.4375 170.1875 Z M103.5625 170.1875 C103.5625 171.8375 103.5625 173.4875 103.5625 175.1875 C109.5025 175.1875 115.4425 175.1875 121.5625 175.1875 C121.5625 173.5375 121.5625 171.8875 121.5625 170.1875 C115.6225 170.1875 109.6825 170.1875 103.5625 170.1875 Z " fill="#000000" transform="translate(43.4375,8.8125)"/>
</svg>
